<?xml version="1.0" encoding="UTF-8"?>
<svg version="1.1" xmlns="http://www.w3.org/2000/svg" width="770" height="200">
<path d="M0 0 C3.97952617 3.10385701 6.2664717 7.17398746 7.41796875 12.0390625 C7.91196221 16.46442055 7.89901488 20.82503327 7.85546875 25.2734375 C7.85095703 26.15257813 7.84644531 27.03171875 7.84179688 27.9375 C7.83009212 30.09117553 7.81215944 32.24481567 7.79296875 34.3984375 C9.57450417 33.03733234 11.34279654 31.65888414 13.10546875 30.2734375 C14.09160156 29.50773437 15.07773437 28.74203125 16.09375 27.953125 C19.80217262 24.44327204 21.53266303 21.40432277 22.19140625 16.328125 C22.17980469 14.81605469 22.17980469 14.81605469 22.16796875 13.2734375 C22.17570312 12.26023437 22.1834375 11.24703125 22.19140625 10.203125 C21.74836172 7.08443902 20.88049814 5.70686947 18.79296875 3.3984375 C22.48830213 -0.13622921 26.85130255 -1.02116546 31.79296875 -1.6015625 C34.24035406 -1.48544568 36.38521469 -1.1138506 38.79296875 -0.6015625 C39.78296875 2.3684375 39.78296875 2.3684375 40.79296875 5.3984375 C41.36144531 4.98851563 41.92992187 4.57859375 42.515625 4.15625 C49.59789634 -0.7859694 55.5204018 -3.44269475 64.28515625 -2.34375 C68.7105449 -1.03405554 71.95306729 1.81704741 74.79296875 5.3984375 C75.5078125 7.62890625 75.5078125 7.62890625 75.79296875 9.3984375 C78.70099336 7.17915556 80.74609637 5.46874607 82.79296875 2.3984375 C89.50500977 -1.79658814 96.64766124 -2.72406982 104.41796875 -2.5390625 C109.20420612 -0.64975827 113.24543981 1.93869384 116.03051758 6.36547852 C120.17790441 16.4159201 119.39740473 27.278784 119.41796875 37.9609375 C119.43431329 41.00510718 119.45626292 44.04897001 119.48959351 47.09300232 C119.5092343 48.97708676 119.51855722 50.86131296 119.51651001 52.74549866 C119.52346893 53.59075607 119.53042786 54.43601349 119.53759766 55.30688477 C119.53885651 56.05092056 119.54011536 56.79495636 119.54141235 57.5615387 C119.63842771 59.64698168 119.63842771 59.64698168 121.79296875 61.3984375 C121.46296875 62.7184375 121.13296875 64.0384375 120.79296875 65.3984375 C113.86296875 65.3984375 106.93296875 65.3984375 99.79296875 65.3984375 C99.46296875 64.0784375 99.13296875 62.7584375 98.79296875 61.3984375 C99.78296875 61.0684375 100.77296875 60.7384375 101.79296875 60.3984375 C101.81808153 56.22160205 101.83601938 52.04480905 101.84790039 47.86791992 C101.85286433 46.45319857 101.85963767 45.03848217 101.8684082 43.6237793 C103.05628841 27.32518066 103.05628841 27.32518066 98.79296875 12.3984375 C91.88180447 10.46974049 85.4794198 11.21510654 78.79296875 13.3984375 C78.96054687 14.66945313 79.128125 15.94046875 79.30078125 17.25 C79.80019007 22.22130813 79.84154504 27.12086388 79.78515625 32.109375 C79.7733432 33.27995453 79.7733432 33.27995453 79.7612915 34.47418213 C79.72475837 37.73805717 79.68233738 41.00161526 79.62158203 44.26513672 C79.57929683 46.67159209 79.55584551 49.07765038 79.53515625 51.484375 C79.51653534 52.21981537 79.49791443 52.95525574 79.47872925 53.71298218 C79.45768028 57.90639138 79.79910131 60.36122351 82.79296875 63.3984375 C79.91359991 66.27780634 76.85031767 65.89640794 72.98046875 66.0859375 C72.26826172 66.13298828 71.55605469 66.18003906 70.82226562 66.22851562 C66.97145849 66.44581372 63.53175658 66.37537027 59.79296875 65.3984375 C59.79296875 63.7484375 59.79296875 62.0984375 59.79296875 60.3984375 C60.45296875 60.3984375 61.11296875 60.3984375 61.79296875 60.3984375 C61.84262302 55.11484121 61.87880832 49.83138254 61.90283203 44.54760742 C61.91285335 42.75233594 61.92647408 40.95708062 61.94384766 39.16186523 C61.96826684 36.57271315 61.97949073 33.98377799 61.98828125 31.39453125 C61.99860382 30.59945663 62.00892639 29.80438202 62.01956177 28.98521423 C62.02072492 23.1313451 61.42840884 18.05602765 58.29296875 12.9609375 C54.29331782 10.46115567 50.37267025 10.66681084 45.79296875 11.3984375 C43.199632 12.49835363 41.1546635 13.82397434 38.79296875 15.3984375 C38.13296875 15.3984375 37.47296875 15.3984375 36.79296875 15.3984375 C37.28410156 16.20635742 37.77523437 17.01427734 38.28125 17.84667969 C40.14329222 22.2215166 40.12728729 25.54416764 39.98046875 30.2265625 C39.96910889 31.05677917 39.95774902 31.88699585 39.94604492 32.74237061 C39.90957123 35.37821495 39.8536521 38.01304626 39.79296875 40.6484375 C39.71337708 44.13278385 39.65337362 47.61665319 39.60546875 51.1015625 C39.58057373 51.90362122 39.55567871 52.70567993 39.5300293 53.53204346 C39.4617067 56.01039881 39.4617067 56.01039881 39.79296875 59.3984375 C41.27796875 60.3884375 41.27796875 60.3884375 42.79296875 61.3984375 C42.79296875 62.3884375 42.79296875 63.3784375 42.79296875 64.3984375 C40.34021734 65.6248132 38.74239065 65.51259064 36.00390625 65.49609375 C35.06289063 65.49287109 34.121875 65.48964844 33.15234375 65.48632812 C32.1675 65.47794922 31.18265625 65.46957031 30.16796875 65.4609375 C29.17539062 65.45642578 28.1828125 65.45191406 27.16015625 65.44726562 C24.70436715 65.43545895 22.24869771 65.4189915 19.79296875 65.3984375 C19.79296875 63.7484375 19.79296875 62.0984375 19.79296875 60.3984375 C20.45296875 60.0684375 21.11296875 59.7384375 21.79296875 59.3984375 C21.79296875 58.7384375 21.79296875 58.0784375 21.79296875 57.3984375 C20.80296875 56.9034375 20.80296875 56.9034375 19.79296875 56.3984375 C19.58671875 57.1409375 19.38046875 57.8834375 19.16796875 58.6484375 C17.35000827 62.28435846 15.31699907 63.4331129 11.79296875 65.3984375 C10.88546875 65.9140625 9.97796875 66.4296875 9.04296875 66.9609375 C3.96277868 67.64480924 -0.08354911 65.29497015 -4.20703125 62.3984375 C-4.53703125 61.4084375 -4.86703125 60.4184375 -5.20703125 59.3984375 C-6.19703125 59.0684375 -7.18703125 58.7384375 -8.20703125 58.3984375 C-9.60354155 59.2840294 -10.99361817 60.18191088 -12.34375 61.13671875 C-22.45668139 67.98467858 -22.45668139 67.98467858 -28.45703125 67.3984375 C-33.6036124 66.02601586 -36.92231757 64.78457594 -40.58203125 60.8359375 C-42.77071696 56.20602542 -42.98032468 52.43307132 -42.20703125 47.3984375 C-39.53522539 41.08326001 -34.18291291 38.22643989 -28.20703125 35.3984375 C-23.74859982 33.64211701 -19.21909859 32.1056929 -14.671875 30.59765625 C-11.41639481 29.75344733 -11.41639481 29.75344733 -10.20703125 28.3984375 C-9.09981991 19.21268414 -8.2934983 11.00821 -12.20703125 2.3984375 C-15.11132055 2.50636571 -15.11132055 2.50636571 -18.20703125 3.3984375 C-19.97851497 5.87776947 -19.97851497 5.87776947 -21.20703125 8.3984375 C-21.86703125 8.3984375 -22.52703125 8.3984375 -23.20703125 8.3984375 C-23.06595378 9.85723859 -22.9190071 11.31547301 -22.76953125 12.7734375 C-22.68832031 13.58554688 -22.60710937 14.39765625 -22.5234375 15.234375 C-22.31613011 17.44116555 -22.31613011 17.44116555 -21.20703125 19.3984375 C-22.37323482 23.83001108 -24.29552046 26.05153103 -28.20703125 28.3984375 C-32.01953125 28.6484375 -32.01953125 28.6484375 -35.20703125 28.3984375 C-38.40207535 23.50602622 -39.98777907 20.42134926 -39.20703125 14.3984375 C-38.01953125 11.8359375 -38.01953125 11.8359375 -36.20703125 9.3984375 C-35.54703125 8.4084375 -34.88703125 7.4184375 -34.20703125 6.3984375 C-26.60211131 -2.5744406 -10.22698587 -5.75650702 0 0 Z M17.1328125 31.609375 C16.42189453 32.27710938 15.71097656 32.94484375 14.97851562 33.6328125 C13.86573242 34.69242188 13.86573242 34.69242188 12.73046875 35.7734375 C11.61188477 36.82144531 11.61188477 36.82144531 10.47070312 37.890625 C6.65367732 41.27429964 6.65367732 41.27429964 3.79296875 45.3984375 C4.45296875 45.3984375 5.11296875 45.3984375 5.79296875 45.3984375 C6.78296875 48.0384375 7.77296875 50.6784375 8.79296875 53.3984375 C12.16733061 53.73224564 12.16733061 53.73224564 15.79296875 53.3984375 C17.58686035 51.53477516 17.58686035 51.53477516 18.79296875 49.3984375 C19.78296875 49.0684375 20.77296875 48.7384375 21.79296875 48.3984375 C22.94123725 46.1019005 22.9085805 44.81530583 22.890625 42.265625 C22.88579102 41.05712891 22.88579102 41.05712891 22.88085938 39.82421875 C22.87248047 38.98246094 22.86410156 38.14070313 22.85546875 37.2734375 C22.85095703 36.42394531 22.84644531 35.57445312 22.84179688 34.69921875 C22.82999749 32.59892841 22.81206181 30.4986742 22.79296875 28.3984375 C19.9477659 28.3984375 19.18315138 29.67759227 17.1328125 31.609375 Z M-17.33203125 35.6484375 C-18.22148437 36.06609375 -19.1109375 36.48375 -20.02734375 36.9140625 C-22.373397 38.20358079 -22.373397 38.20358079 -23.01171875 40.5703125 C-23.07617188 41.17359375 -23.140625 41.776875 -23.20703125 42.3984375 C-23.86703125 42.3984375 -24.52703125 42.3984375 -25.20703125 42.3984375 C-25.31510256 44.33471519 -25.39265375 46.27271506 -25.45703125 48.2109375 C-25.5034375 49.28988281 -25.54984375 50.36882812 -25.59765625 51.48046875 C-25.48694497 54.47377056 -25.48694497 54.47377056 -23.41015625 56.29296875 C-20.06355636 57.97220238 -17.76695154 57.28841757 -14.20703125 56.3984375 C-11.05261237 54.57219499 -10.37841292 53.91258252 -9.20703125 50.3984375 C-9.12729649 49.06318033 -9.09931787 47.72431667 -9.109375 46.38671875 C-9.11420898 45.25073242 -9.11420898 45.25073242 -9.11914062 44.09179688 C-9.12751953 43.30611328 -9.13589844 42.52042969 -9.14453125 41.7109375 C-9.14904297 40.91365234 -9.15355469 40.11636719 -9.15820312 39.29492188 C-9.16997275 37.32939493 -9.18790777 35.36390665 -9.20703125 33.3984375 C-12.60535317 33.3984375 -14.29429954 34.17828163 -17.33203125 35.6484375 Z " fill="#FEFCA2" transform="translate(489.20703125,70.6015625)"/>
<path d="M0 0 C0 0.66 0 1.32 0 2 C0.66 2 1.32 2 2 2 C2 2.66 2 3.32 2 4 C2.66 4 3.32 4 4 4 C4 4.66 4 5.32 4 6 C4.66 6 5.32 6 6 6 C8.57025846 10.2837641 10.58707905 14.1725201 12 19 C16.30507086 14.69492914 17.73531079 9.98001551 18 4 C16.83112469 0.92649274 16.83112469 0.92649274 15 -1 C20.21072886 -4.58237609 25.67118485 -6.52179567 32 -5.625 C32.99 -5.41875 33.98 -5.2125 35 -5 C35.495 -3.02 35.495 -3.02 36 -1 C36.75023437 -1.433125 37.50046875 -1.86625 38.2734375 -2.3125 C44.93971588 -5.93949277 50.35504317 -8.42326324 58 -7 C61.625 -5.5 61.625 -5.5 64 -4 C64 -3.34 64 -2.68 64 -2 C64.66 -2 65.32 -2 66 -2 C67.78180829 1.26664854 68.02728023 2.82722524 67.4375 6.5625 C65.55888259 11.05484598 63.30896714 12.80827502 59.0625 15 C55.61665234 15 53.6104587 13.07650124 51 11 C51 10.34 51 9.68 51 9 C50.34 9 49.68 9 49 9 C48.01 6.03 48.01 6.03 47 3 C42.59124045 3.50385823 40.17449034 4.9113067 37 8 C35.54708727 10.46255685 35.54708727 10.46255685 35 13 C35.495 14.485 35.495 14.485 36 16 C36.06154722 18.92652431 36.06758292 21.8286372 36.02734375 24.75390625 C36.01470261 26.51236786 36.00234128 28.2708315 35.99023438 30.02929688 C35.96535813 32.80336811 35.93732208 35.57733459 35.90405273 38.35131836 C35.8739495 41.02718802 35.85611032 43.70292186 35.83984375 46.37890625 C35.82638412 47.21224991 35.8129245 48.04559357 35.79905701 48.90419006 C35.79014741 50.93721087 35.88597883 52.97015957 36 55 C36.66 55.66 37.32 56.32 38 57 C37.505 58.98 37.505 58.98 37 61 C30.4 61 23.8 61 17 61 C16.67 59.68 16.34 58.36 16 57 C16.99 56.01 16.99 56.01 18 55 C18.24501495 52.56823603 18.37324921 50.24135116 18.4140625 47.8046875 C18.43342865 47.09724396 18.4527948 46.38980042 18.4727478 45.66091919 C18.53257652 43.39906915 18.57894101 41.1371683 18.625 38.875 C18.66317686 37.3424256 18.70222842 35.80987272 18.7421875 34.27734375 C18.83828039 30.51840376 18.92229849 26.75936332 19 23 C15.04 25.475 15.04 25.475 11 28 C11.33 28.33 11.66 28.66 12 29 C12.59891259 35.70782102 11.04927613 40.07950766 8 46 C7.43925781 47.12148437 7.43925781 47.12148437 6.8671875 48.265625 C6.58101562 48.83796875 6.29484375 49.4103125 6 50 C5.34 50 4.68 50 4 50 C3.89558594 50.6084375 3.79117188 51.216875 3.68359375 51.84375 C2.30890228 56.17991965 -2.35539738 58.05012671 -6.08984375 60.20703125 C-14.39705614 64.22573399 -24.64275389 64.3328163 -33.58984375 62.45703125 C-35.5625 61.75 -35.5625 61.75 -39 60 C-39.64839844 59.75636719 -40.29679688 59.51273437 -40.96484375 59.26171875 C-48.75118983 56.10832331 -53.57847471 49.06906577 -57.5 41.875 C-60.78358944 33.67332327 -60.27612385 22.08316599 -56.98828125 13.96484375 C-51.56847134 3.18949045 -51.56847134 3.18949045 -45 1 C-44.360625 0.21625 -43.72125 -0.5675 -43.0625 -1.375 C-32.25738782 -12.50265284 -11.1546948 -7.4364632 0 0 Z M-30 -2 C-30 -1.34 -30 -0.68 -30 0 C-30.99 0 -31.98 0 -33 0 C-33 0.66 -33 1.32 -33 2 C-33.66 2 -34.32 2 -35 2 C-38.15732744 5.76450579 -38.32558029 9.02346522 -38.30078125 13.71875 C-37.57339625 19.23554015 -35.49098924 21.83851419 -31.125 25.1875 C-29.82949219 26.19876953 -29.82949219 26.19876953 -28.5078125 27.23046875 C-23.91202802 30.47328864 -21.14361916 31.27596641 -15.4375 31.25 C-14.30183594 31.25515625 -13.16617188 31.2603125 -11.99609375 31.265625 C-8.81853574 31.22500727 -8.81853574 31.22500727 -6 29 C-4.35113907 19.5432976 -7.24400936 11.38950546 -12.3125 3.5625 C-14.56907935 0.49183822 -15.74564935 -0.87033104 -19.1875 -2.625 C-23.03521802 -3.13802907 -26.28763463 -3.06067582 -30 -2 Z M-41 26 C-41.33 26.33 -41.66 26.66 -42 27 C-41.73885436 37.30520872 -39.41827055 47.00377568 -33.25 55.375 C-30.00453041 57.71895026 -27.00456884 58.76785108 -23 59 C-18.76487451 58.26345644 -15.82857181 56.80555592 -12.75 53.8125 C-8.7000821 47.30370337 -6.53380052 41.50977756 -5 34 C-5.56396484 34.01571045 -6.12792969 34.0314209 -6.70898438 34.04760742 C-9.30588435 34.11061574 -11.90262275 34.14919598 -14.5 34.1875 C-15.386875 34.21263672 -16.27375 34.23777344 -17.1875 34.26367188 C-24.30184125 34.34213887 -30.99349043 33.49181413 -36.375 28.3125 C-38.66706542 25.77965649 -38.66706542 25.77965649 -41 26 Z " fill="#FDFCA3" transform="translate(674,75)"/>
<path d="M0 0 C3.84412019 2.85844834 6.35344277 6.76643866 7.6875 11.375 C9.12267597 23.43047813 5.08288018 32.42927514 -2 42 C-9.43747411 51.0303227 -9.43747411 51.0303227 -13.13500977 53.32495117 C-15.23328619 54.83917904 -15.23328619 54.83917904 -15.27050781 57.26489258 C-15.16577148 58.13267334 -15.06103516 59.0004541 -14.953125 59.89453125 C-14.7984375 61.32829102 -14.7984375 61.32829102 -14.640625 62.79101562 C-14.51171875 63.78810547 -14.3828125 64.78519531 -14.25 65.8125 C-14.0238597 67.77709382 -13.79984189 69.74193331 -13.578125 71.70703125 C-13.47048828 72.62564941 -13.36285156 73.54426758 -13.25195312 74.49072266 C-12.96597722 77.33884311 -12.90287045 80.13953481 -13 83 C-12.43539062 82.84273438 -11.87078125 82.68546875 -11.2890625 82.5234375 C-3.84946811 80.82223332 2.15552117 81.81484222 8.80078125 85.5078125 C13.36771841 88.60651587 16.58282311 92.58896097 18 98 C19.19167459 106.49068145 15.39019327 113.33309272 10.46484375 120.11328125 C5.69087501 125.40335472 -0.58655905 128.12500923 -7 131 C-6.9278125 131.6084375 -6.855625 132.216875 -6.78125 132.84375 C-6.16508149 138.66311926 -5.8420597 144.46400112 -5.75 150.3125 C-5.72421875 151.62863281 -5.6984375 152.94476563 -5.671875 154.30078125 C-6.14832249 159.67215951 -8.00228279 162.85262521 -11.5 166.875 C-15.14713053 169.68746384 -18.78427112 169.57996871 -23.25 169.35546875 C-30.14831664 168.46378293 -34.37421285 166.32666399 -39 161 C-39.33 160.67 -39.66 160.34 -40 160 C-40.52694774 155.52094418 -40.30696389 153.48753089 -37.875 149.625 C-34.65746055 146.68724659 -33.32351136 145.91176507 -29 146 C-25.02527937 147.52873871 -23.38146335 148.42780497 -21 152 C-20.68016419 156.95745506 -20.74019461 160.48038922 -23 165 C-18.90075477 165.32150943 -16.65644914 165.41384837 -13.125 163.1875 C-9.20689456 159.15415617 -9.84503951 154.66837622 -9.875 149.375 C-9.87693359 148.56627441 -9.87886719 147.75754883 -9.88085938 146.92431641 C-9.91982884 141.54977753 -10.21141949 136.32291847 -11 131 C-11.96486328 131.08701172 -11.96486328 131.08701172 -12.94921875 131.17578125 C-23.73528516 131.71431524 -33.76523752 128.12083644 -42.05859375 121.15625 C-49.55591691 112.82924319 -51.51795933 102.83730287 -51 92 C-50.5 88.9375 -50.5 88.9375 -50 87 C-49.34 87 -48.68 87 -48 87 C-48 85.02 -48 83.04 -48 81 C-47.34 81 -46.68 81 -46 81 C-45.61521484 79.66195312 -45.61521484 79.66195312 -45.22265625 78.296875 C-43.99235124 74.97937522 -42.68305668 72.95374098 -40.4375 70.25 C-39.73109375 69.39792969 -39.0246875 68.54585938 -38.296875 67.66796875 C-28.14456242 55.87540159 -28.14456242 55.87540159 -25.22265625 53.640625 C-23.21058996 50.94072775 -23.93098132 48.44357106 -24.25 45.1875 C-24.35828125 43.98480469 -24.4665625 42.78210937 -24.578125 41.54296875 C-24.83585982 39.37847359 -25.15042858 37.21860711 -25.5625 35.078125 C-26.11724529 31.17509566 -25.9790458 27.48751217 -25.75 23.5625 C-25.72292969 22.83740234 -25.69585937 22.11230469 -25.66796875 21.36523438 C-25.38586481 16.30101364 -24.35199433 12.5118703 -22 8 C-21.34 7.67 -20.68 7.34 -20 7 C-19.731875 6.401875 -19.46375 5.80375 -19.1875 5.1875 C-14.76751323 -2.9545809 -7.71998626 -2.36170632 0 0 Z M-11.625 12.5 C-18.00623223 19.21708655 -18.10801331 27.57469088 -18.1328125 36.31640625 C-18.00141287 38.97145179 -17.58976031 41.41160752 -17 44 C-9.82513133 38.43581614 -4.00016179 31.70046919 -1 23 C-0.63486419 19.49469622 -0.81284152 17.44327007 -2.1875 14.1875 C-3.84447574 11.85943857 -3.84447574 11.85943857 -6.375 10.9375 C-9.12378432 10.79487171 -9.12378432 10.79487171 -11.625 12.5 Z M-23 60 C-23 60.66 -23 61.32 -23 62 C-23.70125 62.165 -24.4025 62.33 -25.125 62.5 C-31.45868829 65.80453302 -34.55388069 72.64297124 -37.43359375 78.921875 C-38.09043759 81.33181238 -37.80427191 82.66603445 -37 85 C-37.66 85 -38.32 85 -39 85 C-39.48410116 99.45131607 -38.40524862 110.18190332 -28.62890625 121.6015625 C-24.56061464 125.54308015 -19.48529662 126.58564306 -14 127 C-13.01 126.505 -13.01 126.505 -12 126 C-12.67492226 116.96086113 -12.67492226 116.96086113 -14 108 C-14.165 106.7625 -14.33 105.525 -14.5 104.25 C-14.81157768 101.12183699 -14.81157768 101.12183699 -16 99 C-16.35919321 97.00448218 -16.69496569 95.00451121 -17 93 C-20.01574271 94.03991128 -20.97991051 94.96914829 -22.75 97.6875 C-24.53061766 102.40613679 -24.5918931 106.2243207 -23 111 C-23.99 111.495 -23.99 111.495 -25 112 C-25.36463732 110.25215171 -25.7163078 108.50159498 -26.0625 106.75 C-26.35833984 105.28820312 -26.35833984 105.28820312 -26.66015625 103.796875 C-27.25235997 98.92310646 -25.76741224 96.3136538 -23.0625 92.3125 C-22.53785156 91.52488281 -22.01320313 90.73726562 -21.47265625 89.92578125 C-20 88 -20 88 -18 87 C-18.65039752 77.92211119 -19.43002758 68.97127098 -21 60 C-21.66 60 -22.32 60 -23 60 Z M-12 90 C-11.53504693 98.29574156 -10.89926638 106.55226278 -10 114.8125 C-9.8755249 115.98594971 -9.8755249 115.98594971 -9.74853516 117.18310547 C-9.35295845 121.21931354 -9.35295845 121.21931354 -8 125 C-3.07710011 124.56562648 -0.51249175 122.356381 3 119 C5.92252676 114.30805228 5.70798 109.34597146 5 104 C3.01559613 98.58798945 0.08649131 93.90656646 -5 91 C-7.32667228 90.62296995 -9.66026308 90.28493283 -12 90 Z " fill="#FDFAA6" transform="translate(141,18)"/>
<path d="M0 0 C9.24 0 18.48 0 28 0 C28.33 1.32 28.66 2.64 29 4 C28.195625 4.33 27.39125 4.66 26.5625 5 C23.67232183 6.81000897 23.67232183 6.81000897 23.33227539 10.25488281 C22.7430265 16.46206735 22.98934097 22.69737208 23.12109375 28.921875 C23.14547077 30.27173944 23.16931013 31.62161368 23.19264221 32.97149658 C23.25511392 36.51133613 23.32418792 40.05101485 23.39489746 43.59069824 C23.47915827 47.86144154 23.55646105 52.13231498 23.6338892 56.4031868 C23.69426329 59.73309926 23.75626389 63.06294563 23.82188416 66.39276123 C23.95082822 73.1291322 24.00994768 79.85289437 23.91127014 86.59014893 C23.89229615 89.14540028 23.89229615 89.14540028 25 92 C28.83326795 92.05859888 32.66641888 92.09379643 36.5 92.125 C37.57765625 92.14175781 38.6553125 92.15851563 39.765625 92.17578125 C50.18222995 92.38896899 50.18222995 92.38896899 59.375 88.125 C60.8908711 86.14270702 62.01868122 84.28974381 63 82 C64.65 82.33 66.3 82.66 68 83 C68.56161385 89.73936614 67.38053675 91.2389265 64 98 C43.21 98.33 22.42 98.66 1 99 C0.34 97.68 -0.32 96.36 -1 95 C-0.360625 94.566875 0.27875 94.13375 0.9375 93.6875 C3.26746003 92.08760823 3.26746003 92.08760823 4 89 C4.09116335 86.33777809 4.12603073 83.70229087 4.11352539 81.0402832 C4.11367142 80.23029877 4.11381744 79.42031433 4.1139679 78.58578491 C4.113271 75.90742315 4.10548903 73.22913087 4.09765625 70.55078125 C4.09579128 68.69418882 4.09436775 66.8375959 4.09336853 64.98100281 C4.0895496 60.09344119 4.07972461 55.20590926 4.06866455 50.31835938 C4.05843704 45.33138429 4.05386803 40.34440442 4.04882812 35.35742188 C4.03810181 25.57160153 4.02103284 15.78580324 4 6 C2.35 5.67 0.7 5.34 -1 5 C-0.67 3.35 -0.34 1.7 0 0 Z " fill="#FEFDA1" transform="translate(262,38)"/>
<path d="M0 0 C-0.2165625 1.546875 -0.2165625 1.546875 -0.4375 3.125 C-0.45556167 8.24548396 1.78444861 12.05548809 4.1496582 16.49243164 C6.84683949 21.56752496 8.92007802 26.74514743 10.859375 32.16015625 C11.92933853 35.05127933 11.92933853 35.05127933 13.640625 37.68359375 C15 40 15 40 15 43 C15.66 43 16.32 43 17 43 C17.12890625 41.9790625 17.2578125 40.958125 17.390625 39.90625 C17.95118428 36.31292131 18.73671354 32.98836323 19.75 29.5 C20.27400391 27.69208984 20.27400391 27.69208984 20.80859375 25.84765625 C21.61334787 23.18546112 22.48753498 20.55719999 23.41015625 17.93359375 C23.6431543 17.26585938 23.87615234 16.598125 24.11621094 15.91015625 C24.7804437 14.02831869 25.4620583 12.15264331 26.14453125 10.27734375 C27.22891099 7.10183823 27.22891099 7.10183823 26.44921875 4.25390625 C26 2 26 2 27.125 0.2109375 C29.54692352 -1.35322144 31.13061974 -1.40061947 34 -1.375 C34.86625 -1.38273437 35.7325 -1.39046875 36.625 -1.3984375 C39.43606469 -0.92684441 40.35668861 -0.3027982 42 2 C42 2.99 42 3.98 42 5 C40.35 5.33 38.7 5.66 37 6 C37 7.32 37 8.64 37 10 C36.34 10 35.68 10 35 10 C35.061875 10.86238281 35.12375 11.72476563 35.1875 12.61328125 C34.96983032 16.5449399 33.88105837 18.75195589 32 22.1875 C29.61091762 26.3606609 29.61091762 26.3606609 29 31 C28.34 31 27.68 31 27 31 C27.04125 31.721875 27.0825 32.44375 27.125 33.1875 C26.98913607 36.24443843 26.36326842 38.27346317 25 41 C24.01 41.495 24.01 41.495 23 42 C23 43.98 23 45.96 23 48 C22.34 48 21.68 48 21 48 C21 49.65 21 51.3 21 53 C20.34 53 19.68 53 19 53 C19.04125 53.721875 19.0825 54.44375 19.125 55.1875 C18.98913607 58.24443843 18.36326842 60.27346317 17 63 C16.01 63.495 16.01 63.495 15 64 C15 65.65 15 67.3 15 69 C14.34 69 13.68 69 13 69 C13 70.65 13 72.3 13 74 C12.34 74 11.68 74 11 74 C10.896875 74.845625 10.79375 75.69125 10.6875 76.5625 C9.93116775 80.34416126 8.58739867 83.49449461 7 87 C6.67 87.99 6.34 88.98 6 90 C5.34 90 4.68 90 4 90 C3.7525 90.5775 3.505 91.155 3.25 91.75 C1.03458176 95.73775283 -1.20755171 97.61125178 -5.3125 99.625 C-9 100 -9 100 -11.0078125 98.78125 C-12.77623888 97.26341035 -14.41410272 95.70640619 -16 94 C-15.69201674 92.51988629 -15.378482 91.04092675 -15.0625 89.5625 C-14.88847656 88.73878906 -14.71445312 87.91507812 -14.53515625 87.06640625 C-14 85 -14 85 -13 84 C-8.96839809 83.73706944 -7.44107266 83.70595156 -4 86 C-1.89501382 86.00204086 -1.89501382 86.00204086 0 85 C1.20860581 83.20370162 1.20860581 83.20370162 1.95703125 80.921875 C2.26447266 80.09042969 2.57191406 79.25898438 2.88867188 78.40234375 C3.3459668 77.08943359 3.3459668 77.08943359 3.8125 75.75 C4.13669922 74.89019531 4.46089844 74.03039062 4.79492188 73.14453125 C7.05797275 66.85450976 7.13626316 63.11027691 4.3046875 56.953125 C3.94729492 56.17388672 3.58990234 55.39464844 3.22167969 54.59179688 C0.8834356 49.6312055 -1.48825113 44.68741869 -3.875 39.75 C-7.12861181 32.99934563 -10.37788847 26.25010748 -13.5 19.4375 C-14.33303199 17.62486148 -15.16632275 15.81234184 -16 14 C-16.37511719 13.18273437 -16.75023437 12.36546875 -17.13671875 11.5234375 C-18.7957841 8.03261598 -19.71750072 6.18833285 -23 4 C-23 2.68 -23 1.36 -23 0 C-16.77204542 -3.11397729 -6.74331816 -1.0577754 0 0 Z " fill="#FDFCA3" transform="translate(351,70)"/>
<path d="M0 0 C0 0.66 0 1.32 0 2 C0.598125 2.2475 1.19625 2.495 1.8125 2.75 C4.88721281 4.50697875 6.45825181 6.56135757 7.703125 9.8671875 C8.08605281 12.61822154 7.38805716 13.83989607 6.0625 16.25 C5.49208984 17.30960938 5.49208984 17.30960938 4.91015625 18.390625 C4.60980469 18.92171875 4.30945313 19.4528125 4 20 C3.01 20 2.02 20 1 20 C0.67 20.66 0.34 21.32 0 22 C-6.625 22.25 -6.625 22.25 -10 20 C-10 19.34 -10 18.68 -10 18 C-10.66 18 -11.32 18 -12 18 C-12.495 14.04 -12.495 14.04 -13 10 C-16.03504133 8.6264955 -16.03504133 8.6264955 -19.0625 10.25 C-22.20014417 11.83338922 -22.20014417 11.83338922 -24 15 C-24.36620881 17.11928076 -24.36620881 17.11928076 -24.4140625 19.48046875 C-24.45281494 20.38659912 -24.49156738 21.29272949 -24.53149414 22.22631836 C-24.56235107 23.2035083 -24.59320801 24.18069824 -24.625 25.1875 C-24.66294678 26.19240479 -24.70089355 27.19730957 -24.73999023 28.23266602 C-25.12365803 39.48605145 -25.09719449 50.74188724 -25 62 C-24.34 62 -23.68 62 -23 62 C-22.67 62.99 -22.34 63.98 -22 65 C-22.33 65.66 -22.66 66.32 -23 67 C-29.93 67 -36.86 67 -44 67 C-44.33 66.01 -44.66 65.02 -45 64 C-44.67 63.34 -44.34 62.68 -44 62 C-43.34 62 -42.68 62 -42 62 C-41.92398349 54.66771072 -41.87141422 47.33552293 -41.83520508 40.00292969 C-41.82011145 37.50809939 -41.79963452 35.01329565 -41.77368164 32.51855469 C-41.7373246 28.93417814 -41.72027922 25.35015218 -41.70703125 21.765625 C-41.69154739 20.64883362 -41.67606354 19.53204224 -41.66011047 18.38140869 C-41.65988388 17.34063171 -41.65965729 16.29985474 -41.65942383 15.22753906 C-41.65276199 14.31264709 -41.64610016 13.39775513 -41.63923645 12.45513916 C-42.06711042 9.54328693 -43.24755708 8.30255362 -45 6 C-44.67 5.01 -44.34 4.02 -44 3 C-38.09361473 0.56040608 -32.31171229 0.79455548 -26 1 C-25.34 2.65 -24.68 4.3 -24 6 C-23.55011719 5.66226563 -23.10023438 5.32453125 -22.63671875 4.9765625 C-15.76815782 0.2139932 -8.26542254 -2.05518615 0 0 Z " fill="#FEFDA0" transform="translate(439,69)"/>
<path d="M0 0 C9.24 0 18.48 0 28 0 C28 0.33 28 0.66 28 1 C19.09 1 10.18 1 1 1 C2.65 2.98 4.3 4.96 6 7 C7.2033214 10.6099642 7.13192163 13.89619907 7.11352539 17.65258789 C7.11367142 18.43009903 7.11381744 19.20761017 7.1139679 20.00868225 C7.11327098 22.58003525 7.10548768 25.15131589 7.09765625 27.72265625 C7.09579093 29.50719666 7.09436756 31.29173758 7.09336853 33.07627869 C7.08954941 37.7756593 7.07972611 42.47500904 7.06866455 47.17437744 C7.0584485 51.96064843 7.05386756 56.74692438 7.04882812 61.53320312 C7.0392485 69.93633629 7.02481254 78.33945005 7.00672913 86.74256897 C7.0031089 88.49504368 7 90.24752155 7 92 C7 93.65 7 95.3 7 97 C12.61 97 18.22 97 24 97 C24 96.34 24 95.68 24 95 C23.34 94.67 22.68 94.34 22 94 C22.33 92.35 22.66 90.7 23 89 C23.66 89.99 24.32 90.98 25 92 C27.38507 92.44963043 27.38507 92.44963043 30.1640625 92.36328125 C31.20433594 92.36263672 32.24460937 92.36199219 33.31640625 92.36132812 C34.40824219 92.34521484 35.50007813 92.32910156 36.625 92.3125 C38.22794922 92.31733398 38.22794922 92.31733398 39.86328125 92.32226562 C50.23250825 92.38352649 50.23250825 92.38352649 59.375 88.125 C60.8908711 86.14270702 62.01868122 84.28974381 63 82 C64.65 82.33 66.3 82.66 68 83 C68.56161385 89.73936614 67.38053675 91.2389265 64 98 C43.21 98.33 22.42 98.66 1 99 C0.34 97.68 -0.32 96.36 -1 95 C-0.360625 94.566875 0.27875 94.13375 0.9375 93.6875 C3.26746003 92.08760823 3.26746003 92.08760823 4 89 C4.09116335 86.33777809 4.12603073 83.70229087 4.11352539 81.0402832 C4.11367142 80.23029877 4.11381744 79.42031433 4.1139679 78.58578491 C4.113271 75.90742315 4.10548903 73.22913087 4.09765625 70.55078125 C4.09579128 68.69418882 4.09436775 66.8375959 4.09336853 64.98100281 C4.0895496 60.09344119 4.07972461 55.20590926 4.06866455 50.31835938 C4.05843704 45.33138429 4.05386803 40.34440442 4.04882812 35.35742188 C4.03810181 25.57160153 4.02103284 15.78580324 4 6 C2.35 5.67 0.7 5.34 -1 5 C-0.67 3.35 -0.34 1.7 0 0 Z " fill="#FDF9AB" transform="translate(262,38)"/>
<path d="M0 0 C0.72030396 -0.00175232 1.44060791 -0.00350464 2.18273926 -0.00531006 C4.57497534 -0.00972835 6.9671381 -0.00679068 9.359375 -0.00341797 C11.01464858 -0.00409101 12.66992207 -0.00506105 14.32519531 -0.00631714 C17.79883767 -0.00779408 21.27245437 -0.00563968 24.74609375 -0.00097656 C29.20869998 0.00472073 33.67124608 0.0014417 38.1338501 -0.00454903 C41.5532273 -0.00815474 44.97259015 -0.00701601 48.39196777 -0.00442123 C50.03788256 -0.00375199 51.68379863 -0.00458029 53.32971191 -0.00690079 C55.62609331 -0.00942749 57.92237599 -0.0055865 60.21875 0 C61.52811523 0.00079559 62.83748047 0.00159119 64.18652344 0.00241089 C67.109375 0.12939453 67.109375 0.12939453 68.109375 1.12939453 C68.234375 3.62939453 68.234375 3.62939453 68.109375 6.12939453 C66.19731198 8.04145756 62.74811116 7.25725218 60.21875 7.25878906 C59.49844604 7.26054138 58.77814209 7.2622937 58.03601074 7.26409912 C55.64377466 7.26851742 53.2516119 7.26557974 50.859375 7.26220703 C49.20410142 7.26288008 47.54882793 7.26385011 45.89355469 7.2651062 C42.41991233 7.26658314 38.94629563 7.26442874 35.47265625 7.25976562 C31.01005002 7.25406833 26.54750392 7.25734736 22.0848999 7.26333809 C18.6655227 7.2669438 15.24615985 7.26580507 11.82678223 7.2632103 C10.18086744 7.26254106 8.53495137 7.26336935 6.88903809 7.26568985 C4.59265669 7.26821655 2.29637401 7.26437557 0 7.25878906 C-1.96404785 7.25759567 -1.96404785 7.25759567 -3.96777344 7.25637817 C-6.890625 7.12939453 -6.890625 7.12939453 -7.890625 6.12939453 C-8.015625 3.62939453 -8.015625 3.62939453 -7.890625 1.12939453 C-5.97856198 -0.78266849 -2.52936116 0.00153688 0 0 Z " fill="#FDF6AF" transform="translate(144.890625,70.87060546875)"/>
<path d="M0 0 C1.48669189 -0.00956978 1.48669189 -0.00956978 3.00341797 -0.01933289 C4.60660889 -0.02100212 4.60660889 -0.02100212 6.2421875 -0.02270508 C7.34062988 -0.02603348 8.43907227 -0.02936188 9.57080078 -0.03279114 C11.89420147 -0.03785573 14.21760943 -0.04019961 16.54101562 -0.04003906 C20.1029857 -0.0422276 23.66464716 -0.06039411 27.2265625 -0.0793457 C29.48176977 -0.08227925 31.73697852 -0.0842643 33.9921875 -0.08520508 C35.06098145 -0.09239059 36.12977539 -0.09957611 37.23095703 -0.10697937 C38.22208496 -0.10390274 39.21321289 -0.10082611 40.234375 -0.09765625 C41.10690918 -0.09908127 41.97944336 -0.10050629 42.87841797 -0.10197449 C45.1171875 0.14526367 45.1171875 0.14526367 48.1171875 2.14526367 C47.9296875 4.52026367 47.9296875 4.52026367 47.1171875 7.14526367 C43.72871438 8.88811775 40.96974337 9.38566484 37.19091797 9.31225586 C35.76451492 9.29168121 35.76451492 9.29168121 34.30929565 9.27069092 C33.29457184 9.24476868 32.27984802 9.21884644 31.234375 9.19213867 C30.1831546 9.17185608 29.1319342 9.15157349 28.04885864 9.13067627 C25.83145182 9.08518066 23.61414756 9.03442241 21.39697266 8.97875977 C17.99785838 8.89540274 14.59882558 8.8336397 11.19921875 8.77416992 C9.04424232 8.72728562 6.88929264 8.67915133 4.734375 8.62963867 C3.71560272 8.61181335 2.69683044 8.59398804 1.64718628 8.57562256 C0.70255524 8.54929749 -0.24207581 8.52297241 -1.21533203 8.49584961 C-2.04630402 8.47649353 -2.877276 8.45713745 -3.73342896 8.43719482 C-5.8828125 8.14526367 -5.8828125 8.14526367 -8.8828125 6.14526367 C-8.5528125 4.49526367 -8.2228125 2.84526367 -7.8828125 1.14526367 C-4.95445744 0.16914532 -3.0504987 0.01332657 0 0 Z " fill="#FEFDA0" transform="translate(174.8828125,99.854736328125)"/>
<path d="M0 0 C0.99450668 -0.00315216 1.98901337 -0.00630432 3.01365662 -0.009552 C4.09591019 -0.00752777 5.17816376 -0.00550354 6.29321289 -0.00341797 C7.94867882 -0.00485306 7.94867882 -0.00485306 9.6375885 -0.00631714 C11.97714291 -0.00699919 14.3166992 -0.00514317 16.65625 -0.00097656 C20.24686928 0.00436626 23.83736318 -0.00091813 27.42797852 -0.00732422 C29.69555692 -0.00666334 31.96313524 -0.00538198 34.23071289 -0.00341797 C35.31094223 -0.0054422 36.39117157 -0.00746643 37.50413513 -0.009552 C38.50179398 -0.00639984 39.49945282 -0.00324768 40.52734375 0 C41.84852455 0.00119339 41.84852455 0.00119339 43.19639587 0.00241089 C45.32836914 0.12939453 45.32836914 0.12939453 47.32836914 1.12939453 C46.99836914 3.10939453 46.66836914 5.08939453 46.32836914 7.12939453 C29.16836914 7.12939453 12.00836914 7.12939453 -5.67163086 7.12939453 C-5.67163086 0.00512768 -5.67163086 0.00512768 0 0 Z " fill="#FEFD9D" transform="translate(46.671630859375,70.87060546875)"/>
<path d="M0 0 C0.89821976 0.02452744 1.79643951 0.04905487 2.72187805 0.07432556 C4.61421811 0.13086322 6.50622582 0.19969496 8.39770508 0.2800293 C11.30070712 0.40234063 14.20292003 0.48660354 17.10742188 0.56445312 C18.94668771 0.62408773 20.78588568 0.68586253 22.625 0.75 C23.49581711 0.77723648 24.36663422 0.80447296 25.26383972 0.83253479 C31.37968709 1.10624959 31.37968709 1.10624959 33.61328125 3.33984375 C33.36328125 5.90234375 33.36328125 5.90234375 32.61328125 8.33984375 C29.26349482 10.01473696 25.49148542 9.48140545 21.80859375 9.47265625 C20.93306854 9.47361298 20.05754333 9.4745697 19.15548706 9.47555542 C17.3010857 9.47623665 15.44668195 9.47438635 13.59228516 9.47021484 C10.75678115 9.46487857 7.92143647 9.47015515 5.0859375 9.4765625 C3.2851559 9.47590146 1.4843744 9.47461975 -0.31640625 9.47265625 C-1.16443817 9.47468048 -2.01247009 9.47670471 -2.88619995 9.47879028 C-3.68027252 9.47563812 -4.47434509 9.47248596 -5.29248047 9.46923828 C-6.33600174 9.46804489 -6.33600174 9.46804489 -7.40060425 9.46682739 C-9.55969594 9.32878433 -11.35641907 9.10337965 -13.38671875 8.33984375 C-13.71671875 7.34984375 -14.04671875 6.35984375 -14.38671875 5.33984375 C-10.01253878 -0.32699933 -6.65555693 -0.3186845 0 0 Z " fill="#FEFD9F" transform="translate(70.38671875,39.66015625)"/>
<path d="M0 0 C1.31116539 -0.00642769 1.31116539 -0.00642769 2.64881897 -0.01298523 C4.49723444 -0.01872728 6.3456725 -0.01922971 8.1940918 -0.01489258 C11.02106322 -0.01173449 13.84698626 -0.0351863 16.67382812 -0.06054688 C18.47005076 -0.06282008 20.26627622 -0.06352327 22.0625 -0.0625 C22.90739487 -0.07170975 23.75228973 -0.08091949 24.62278748 -0.09040833 C30.51696519 -0.04398507 30.51696519 -0.04398507 33.66235352 1.82348633 C34.13600342 2.31099365 34.60965332 2.79850098 35.09765625 3.30078125 C34.72265625 5.23828125 34.72265625 5.23828125 34.09765625 7.30078125 C31.83160137 8.43380869 30.57820814 8.43295732 28.06274414 8.44604492 C26.81618797 8.4556147 26.81618797 8.4556147 25.54444885 8.46537781 C24.64548386 8.46649063 23.74651886 8.46760345 22.8203125 8.46875 C21.89802353 8.4720784 20.97573456 8.4754068 20.02549744 8.47883606 C18.07274882 8.48390395 16.11999152 8.48624443 14.16723633 8.48608398 C11.17579921 8.48826982 8.18473116 8.50642516 5.19335938 8.52539062 C3.29817835 8.52832467 1.40299556 8.53030939 -0.4921875 8.53125 C-1.38912827 8.53843552 -2.28606903 8.54562103 -3.21018982 8.55302429 C-4.04437943 8.54994766 -4.87856903 8.54687103 -5.73803711 8.54370117 C-6.47146835 8.54512619 -7.2048996 8.54655121 -7.96055603 8.54801941 C-9.90234375 8.30078125 -9.90234375 8.30078125 -12.90234375 6.30078125 C-12.58984375 4.42578125 -12.58984375 4.42578125 -11.90234375 2.30078125 C-7.96508951 -0.32405491 -4.57014026 -0.00491813 0 0 Z " fill="#FEFDA0" transform="translate(42.90234375,99.69921875)"/>
<path d="M0 0 C1.13012512 0.00094414 1.13012512 0.00094414 2.28308105 0.00190735 C3.13736694 -0.00432144 3.99165283 -0.01055023 4.87182617 -0.01696777 C5.795802 -0.00775803 6.71977783 0.00145172 7.67175293 0.01094055 C8.61860962 0.01044205 9.56546631 0.00994354 10.54101562 0.00942993 C12.54506527 0.01177285 14.54911771 0.02151412 16.55310059 0.03804016 C19.62807408 0.06162647 22.70218079 0.05860358 25.77722168 0.05195618 C27.72123729 0.05753288 29.66524923 0.0646427 31.60925293 0.07344055 C32.99521667 0.07207344 32.99521667 0.07207344 34.40917969 0.07067871 C35.26346558 0.08021072 36.11775146 0.08974274 36.9979248 0.0995636 C38.12804993 0.10647469 38.12804993 0.10647469 39.28100586 0.11352539 C41.14050293 0.3742218 41.14050293 0.3742218 43.14050293 2.3742218 C42.76550293 4.9992218 42.76550293 4.9992218 42.14050293 7.3742218 C27.37756595 8.26814672 12.89878619 8.36419952 -1.85949707 7.3742218 C-2.51949707 6.0542218 -3.17949707 4.7342218 -3.85949707 3.3742218 C-1.85949707 0.3742218 -1.85949707 0.3742218 0 0 Z " fill="#FDFDA0" transform="translate(169.8594970703125,129.6257781982422)"/>
<path d="M0 0 C2.1809082 0.08569336 2.1809082 0.08569336 4.0559082 1.27319336 C5.1809082 3.08569336 5.1809082 3.08569336 4.8684082 5.77319336 C4.6415332 6.53631836 4.4146582 7.29944336 4.1809082 8.08569336 C0.66197828 9.25867 -2.5282259 9.24778852 -6.19018555 9.25366211 C-6.90892349 9.25699051 -7.62766144 9.26031891 -8.36817932 9.26374817 C-9.88704794 9.26880629 -11.40592765 9.27115684 -12.92480469 9.27099609 C-15.24457152 9.27318203 -17.56386223 9.29134746 -19.88354492 9.31030273 C-21.36075684 9.31323703 -22.83797101 9.31522158 -24.31518555 9.31616211 C-25.35285316 9.32694038 -25.35285316 9.32694038 -26.41148376 9.3379364 C-30.05294318 9.3207189 -32.72181201 9.07958883 -35.8190918 7.08569336 C-35.4440918 4.64819336 -35.4440918 4.64819336 -34.8190918 2.08569336 C-31.96252033 0.65740763 -29.42652109 0.86555275 -26.23706055 0.76928711 C-25.26027092 0.73811546 -25.26027092 0.73811546 -24.26374817 0.70631409 C-22.17813713 0.64091502 -20.09239599 0.58207365 -18.0065918 0.52319336 C-16.61269883 0.47998316 -15.21881835 0.43636807 -13.82495117 0.39233398 C-9.21688555 0.25032236 -4.60805226 0.1400733 0 0 Z " fill="#FEFD9E" transform="translate(191.819091796875,39.914306640625)"/>
<path d="M0 0 C1.72974441 0.00015918 3.45949355 0.0058569 5.18920898 0.01586914 C6.09783188 0.01728409 7.00645477 0.01869904 7.94261169 0.02015686 C10.85687494 0.02577346 13.77106254 0.03832874 16.68530273 0.05102539 C18.65600475 0.05603825 20.62670797 0.06060153 22.59741211 0.06469727 C27.43923832 0.07574828 32.28100768 0.09302401 37.12280273 0.11352539 C37.78280273 1.43352539 38.44280273 2.75352539 39.12280273 4.11352539 C38.46280273 5.10352539 37.80280273 6.09352539 37.12280273 7.11352539 C34.09519791 7.39258493 31.27494622 7.48519364 28.24780273 7.44165039 C27.36753418 7.43977722 26.48726562 7.43790405 25.58032227 7.43597412 C23.71749083 7.42924567 21.85467371 7.41531549 19.99194336 7.39477539 C17.13438853 7.36365158 14.27738516 7.35380881 11.41967773 7.34790039 C9.61237932 7.33872934 7.80508653 7.32835324 5.99780273 7.31665039 C5.13944824 7.31240051 4.28109375 7.30815063 3.39672852 7.30377197 C-2.64282227 7.23071289 -2.64282227 7.23071289 -4.87719727 6.11352539 C-4.91991827 4.44740634 -4.91783559 2.77969654 -4.87719727 1.11352539 C-3.87719727 0.11352539 -3.87719727 0.11352539 0 0 Z " fill="#FEFDA0" transform="translate(154.877197265625,159.886474609375)"/>
<path d="M0 0 C1.15628906 0.00607269 1.15628906 0.00607269 2.3359375 0.01226807 C3.12742187 0.01035461 3.91890625 0.00844116 4.734375 0.00646973 C6.4088574 0.00510789 8.08335035 0.00880425 9.7578125 0.01715088 C12.32576131 0.02785067 14.89301053 0.01725582 17.4609375 0.00445557 C19.08593905 0.00577716 20.71094016 0.00833956 22.3359375 0.01226807 C23.10679688 0.0082196 23.87765625 0.00417114 24.671875 0 C30.10601618 0.04797174 30.10601618 0.04797174 32.3359375 2.27789307 C31.9609375 4.90289307 31.9609375 4.90289307 31.3359375 7.27789307 C25.94263884 7.44511832 20.54919999 7.60571674 15.15551758 7.7600708 C13.3192 7.81356841 11.48293503 7.86890352 9.64672852 7.92608643 C7.01329903 8.0077817 4.37975345 8.08295044 1.74609375 8.15679932 C0.92005142 8.18383438 0.09400909 8.21086945 -0.75706482 8.23872375 C-2.7254206 8.29072317 -4.69505581 8.28977144 -6.6640625 8.27789307 C-7.6640625 7.27789307 -7.6640625 7.27789307 -7.8515625 4.84039307 C-7.47426845 -0.31595901 -4.43833402 0.03918092 0 0 Z " fill="#FDFD9F" transform="translate(51.6640625,129.72210693359375)"/>
<path d="M0 0 C21.78 0 43.56 0 66 0 C66 0.99 66 1.98 66 3 C63.20965739 4.3951713 60.92774028 4.11955162 57.80615234 4.11352539 C56.50495453 4.11344986 55.20375671 4.11337433 53.86312866 4.11329651 C52.43739789 4.10818947 51.0116675 4.10297347 49.5859375 4.09765625 C48.13148039 4.09579147 46.67702266 4.09436785 45.2225647 4.09336853 C41.39207224 4.08954805 37.56161763 4.07972176 33.73114014 4.06866455 C29.82336947 4.05844035 25.91559269 4.05386874 22.0078125 4.04882812 C14.3385244 4.03809908 6.6692675 4.02102828 -1 4 C-0.67 2.68 -0.34 1.36 0 0 Z " fill="#FEFE9E" transform="translate(144,73)"/>
<path d="M0 0 C1.26650391 -0.01224609 2.53300781 -0.02449219 3.83789062 -0.03710938 C5.04509766 -0.03904297 6.25230469 -0.04097656 7.49609375 -0.04296875 C9.1675647 -0.04913208 9.1675647 -0.04913208 10.87280273 -0.05541992 C13.5625 0.1875 13.5625 0.1875 15.5625 2.1875 C15.02678571 5.72321429 15.02678571 5.72321429 13.5625 7.1875 C9.08918042 7.44130234 4.6046654 7.37272721 0.125 7.375 C-1.14150391 7.38724609 -2.40800781 7.39949219 -3.71289062 7.41210938 C-4.92009766 7.41404297 -6.12730469 7.41597656 -7.37109375 7.41796875 C-9.0425647 7.42413208 -9.0425647 7.42413208 -10.74780273 7.43041992 C-13.4375 7.1875 -13.4375 7.1875 -15.4375 5.1875 C-14.25681537 -2.60501855 -6.40295156 0.00324858 0 0 Z " fill="#FEFD9F" transform="translate(75.4375,159.8125)"/>
<path d="M0 0 C0.99450668 -0.00315216 1.98901337 -0.00630432 3.01365662 -0.009552 C4.09591019 -0.00752777 5.17816376 -0.00550354 6.29321289 -0.00341797 C7.94867882 -0.00485306 7.94867882 -0.00485306 9.6375885 -0.00631714 C11.97714291 -0.00699919 14.3166992 -0.00514317 16.65625 -0.00097656 C20.24686928 0.00436626 23.83736318 -0.00091813 27.42797852 -0.00732422 C29.69555692 -0.00666334 31.96313524 -0.00538198 34.23071289 -0.00341797 C35.31094223 -0.0054422 36.39117157 -0.00746643 37.50413513 -0.009552 C38.50179398 -0.00639984 39.49945282 -0.00324768 40.52734375 0 C41.84852455 0.00119339 41.84852455 0.00119339 43.19639587 0.00241089 C45.32836914 0.12939453 45.32836914 0.12939453 47.32836914 1.12939453 C46.99836914 3.10939453 46.66836914 5.08939453 46.32836914 7.12939453 C29.16836914 7.12939453 12.00836914 7.12939453 -5.67163086 7.12939453 C-5.67163086 0.00512768 -5.67163086 0.00512768 0 0 Z M-2.67163086 1.12939453 C-3.00163086 2.11939453 -3.33163086 3.10939453 -3.67163086 4.12939453 C-0.57569433 6.19335222 0.06872393 6.37898049 3.56860352 6.37231445 C4.84507751 6.3769294 4.84507751 6.3769294 6.14733887 6.38163757 C7.5208551 6.3708593 7.5208551 6.3708593 8.92211914 6.35986328 C9.86518921 6.35940506 10.80825928 6.35894684 11.77990723 6.35847473 C13.77377582 6.35545378 15.76764208 6.34757217 17.76147461 6.33520508 C20.81640977 6.31696593 23.8710415 6.31469531 26.92602539 6.31494141 C28.86222593 6.31002541 30.79842442 6.30419674 32.73461914 6.29736328 C33.65029663 6.29625046 34.56597412 6.29513763 35.50939941 6.29399109 C36.78587341 6.28442131 36.78587341 6.28442131 38.08813477 6.2746582 C38.8363147 6.27084641 39.58449463 6.26703461 40.35534668 6.2631073 C42.54153143 6.19798401 42.54153143 6.19798401 45.32836914 5.12939453 C45.32836914 4.13939453 45.32836914 3.14939453 45.32836914 2.12939453 C29.48836914 1.79939453 13.64836914 1.46939453 -2.67163086 1.12939453 Z " fill="#FCF6A9" transform="translate(46.671630859375,70.87060546875)"/>
<path d="M0 0 C0.89821976 0.02452744 1.79643951 0.04905487 2.72187805 0.07432556 C4.61421811 0.13086322 6.50622582 0.19969496 8.39770508 0.2800293 C11.30070712 0.40234063 14.20292003 0.48660354 17.10742188 0.56445312 C18.94668771 0.62408773 20.78588568 0.68586253 22.625 0.75 C23.49581711 0.77723648 24.36663422 0.80447296 25.26383972 0.83253479 C31.37968709 1.10624959 31.37968709 1.10624959 33.61328125 3.33984375 C33.36328125 5.90234375 33.36328125 5.90234375 32.61328125 8.33984375 C29.26349482 10.01473696 25.49148542 9.48140545 21.80859375 9.47265625 C20.93306854 9.47361298 20.05754333 9.4745697 19.15548706 9.47555542 C17.3010857 9.47623665 15.44668195 9.47438635 13.59228516 9.47021484 C10.75678115 9.46487857 7.92143647 9.47015515 5.0859375 9.4765625 C3.2851559 9.47590146 1.4843744 9.47461975 -0.31640625 9.47265625 C-1.16443817 9.47468048 -2.01247009 9.47670471 -2.88619995 9.47879028 C-3.68027252 9.47563812 -4.47434509 9.47248596 -5.29248047 9.46923828 C-6.33600174 9.46804489 -6.33600174 9.46804489 -7.40060425 9.46682739 C-9.55969594 9.32878433 -11.35641907 9.10337965 -13.38671875 8.33984375 C-13.71671875 7.34984375 -14.04671875 6.35984375 -14.38671875 5.33984375 C-10.01253878 -0.32699933 -6.65555693 -0.3186845 0 0 Z M-11.38671875 5.33984375 C-11.38671875 5.99984375 -11.38671875 6.65984375 -11.38671875 7.33984375 C2.47328125 7.33984375 16.33328125 7.33984375 30.61328125 7.33984375 C30.61328125 6.34984375 30.61328125 5.35984375 30.61328125 4.33984375 C24.03853438 1.7946783 17.64254555 2.0033724 10.70849609 2.02416992 C8.48746316 2.02734492 6.26774511 2.00378066 4.046875 1.97851562 C2.62890792 1.97624372 1.21093728 1.97553863 -0.20703125 1.9765625 C-1.48852051 1.97358154 -2.77000977 1.97060059 -4.09033203 1.9675293 C-7.54430292 2.35764229 -8.98945801 2.86373071 -11.38671875 5.33984375 Z " fill="#FBF3B0" transform="translate(70.38671875,39.66015625)"/>
<path d="M0 0 C1.48669189 -0.00956978 1.48669189 -0.00956978 3.00341797 -0.01933289 C4.60660889 -0.02100212 4.60660889 -0.02100212 6.2421875 -0.02270508 C7.34062988 -0.02603348 8.43907227 -0.02936188 9.57080078 -0.03279114 C11.89420147 -0.03785573 14.21760943 -0.04019961 16.54101562 -0.04003906 C20.1029857 -0.0422276 23.66464716 -0.06039411 27.2265625 -0.0793457 C29.48176977 -0.08227925 31.73697852 -0.0842643 33.9921875 -0.08520508 C35.06098145 -0.09239059 36.12977539 -0.09957611 37.23095703 -0.10697937 C38.22208496 -0.10390274 39.21321289 -0.10082611 40.234375 -0.09765625 C41.10690918 -0.09908127 41.97944336 -0.10050629 42.87841797 -0.10197449 C45.1171875 0.14526367 45.1171875 0.14526367 48.1171875 2.14526367 C47.9296875 4.52026367 47.9296875 4.52026367 47.1171875 7.14526367 C43.72871438 8.88811775 40.96974337 9.38566484 37.19091797 9.31225586 C35.76451492 9.29168121 35.76451492 9.29168121 34.30929565 9.27069092 C33.29457184 9.24476868 32.27984802 9.21884644 31.234375 9.19213867 C30.1831546 9.17185608 29.1319342 9.15157349 28.04885864 9.13067627 C25.83145182 9.08518066 23.61414756 9.03442241 21.39697266 8.97875977 C17.99785838 8.89540274 14.59882558 8.8336397 11.19921875 8.77416992 C9.04424232 8.72728562 6.88929264 8.67915133 4.734375 8.62963867 C3.71560272 8.61181335 2.69683044 8.59398804 1.64718628 8.57562256 C0.70255524 8.54929749 -0.24207581 8.52297241 -1.21533203 8.49584961 C-2.04630402 8.47649353 -2.877276 8.45713745 -3.73342896 8.43719482 C-5.8828125 8.14526367 -5.8828125 8.14526367 -8.8828125 6.14526367 C-8.5528125 4.49526367 -8.2228125 2.84526367 -7.8828125 1.14526367 C-4.95445744 0.16914532 -3.0504987 0.01332657 0 0 Z M-3.8828125 1.14526367 C-4.8728125 2.63026367 -4.8728125 2.63026367 -5.8828125 4.14526367 C-4.8928125 5.63026367 -4.8928125 5.63026367 -3.8828125 7.14526367 C-1.82862355 7.58212183 -1.82862355 7.58212183 0.56689453 7.48583984 C1.94809982 7.48549995 1.94809982 7.48549995 3.35720825 7.4851532 C4.35307953 7.46966934 5.34895081 7.45418549 6.375 7.43823242 C7.39318817 7.43398758 8.41137634 7.42974274 9.4604187 7.42536926 C12.72127423 7.40853946 15.98151791 7.37087913 19.2421875 7.33276367 C21.44920984 7.31772241 23.65624184 7.30403304 25.86328125 7.29174805 C31.28145973 7.25862197 36.69927992 7.2083802 42.1171875 7.14526367 C42.4471875 5.82526367 42.7771875 4.50526367 43.1171875 3.14526367 C40.00623634 1.07129623 39.30211873 0.89177317 35.76928711 0.87060547 C34.895056 0.86107346 34.02082489 0.85154144 33.12010193 0.84172058 C32.1794136 0.84263199 31.23872528 0.8435434 30.26953125 0.84448242 C29.30189346 0.8401973 28.33425568 0.83591217 27.33729553 0.83149719 C25.29217308 0.82575446 23.24703021 0.82525321 21.2019043 0.82958984 C18.06328803 0.832755 14.92560941 0.80927182 11.78710938 0.78393555 C9.80208453 0.78166317 7.81705713 0.78095877 5.83203125 0.78198242 C4.41796242 0.7681678 4.41796242 0.7681678 2.97532654 0.7540741 C2.10424759 0.76030289 1.23316864 0.76653168 0.33569336 0.77294922 C-0.43247208 0.77231979 -1.20063751 0.77169037 -1.99208069 0.77104187 C-2.61602219 0.89453506 -3.23996368 1.01802826 -3.8828125 1.14526367 Z " fill="#F8F2A7" transform="translate(174.8828125,99.854736328125)"/>
<path d="M0 0 C1.31116539 -0.00642769 1.31116539 -0.00642769 2.64881897 -0.01298523 C4.49723444 -0.01872728 6.3456725 -0.01922971 8.1940918 -0.01489258 C11.02106322 -0.01173449 13.84698626 -0.0351863 16.67382812 -0.06054688 C18.47005076 -0.06282008 20.26627622 -0.06352327 22.0625 -0.0625 C22.90739487 -0.07170975 23.75228973 -0.08091949 24.62278748 -0.09040833 C30.51696519 -0.04398507 30.51696519 -0.04398507 33.66235352 1.82348633 C34.13600342 2.31099365 34.60965332 2.79850098 35.09765625 3.30078125 C34.72265625 5.23828125 34.72265625 5.23828125 34.09765625 7.30078125 C30.92474912 8.88723482 27.50940241 8.42156338 24.02734375 8.3984375 C23.23111603 8.39702255 22.43488831 8.3956076 21.61453247 8.39414978 C19.06720245 8.3885447 16.51995978 8.37599139 13.97265625 8.36328125 C12.2473971 8.3582669 10.52213658 8.35370388 8.796875 8.34960938 C4.56376834 8.33857362 0.33072711 8.32130561 -3.90234375 8.30078125 C-3.90234375 7.97078125 -3.90234375 7.64078125 -3.90234375 7.30078125 C4.67765625 6.97078125 13.25765625 6.64078125 22.09765625 6.30078125 C22.09765625 4.98078125 22.09765625 3.66078125 22.09765625 2.30078125 C17.880193 2.20186015 13.66334504 2.12929113 9.44506836 2.08105469 C8.01037839 2.060946 6.57577032 2.03365452 5.14135742 1.99902344 C3.07840786 1.95046665 1.01654194 1.92780719 -1.046875 1.91015625 C-2.90856323 1.87873535 -2.90856323 1.87873535 -4.80786133 1.84667969 C-8.00268513 1.97716709 -8.00268513 1.97716709 -9.70581055 4.32519531 C-10.1006665 4.97713867 -10.49552246 5.62908203 -10.90234375 6.30078125 C-11.56234375 6.30078125 -12.22234375 6.30078125 -12.90234375 6.30078125 C-12.58984375 4.42578125 -12.58984375 4.42578125 -11.90234375 2.30078125 C-7.96508951 -0.32405491 -4.57014026 -0.00491813 0 0 Z " fill="#FBF6AA" transform="translate(42.90234375,99.69921875)"/>
<path d="M0 0 C2.17651367 0.08789062 2.17651367 0.08789062 4.05151367 1.27539062 C5.17651367 3.08789062 5.17651367 3.08789062 4.86401367 5.77539062 C4.63713867 6.53851563 4.41026367 7.30164062 4.17651367 8.08789062 C0.63724435 9.26764707 -2.58134082 9.2500041 -6.26489258 9.25585938 C-7.35011452 9.26085197 -7.35011452 9.26085197 -8.45726013 9.26594543 C-9.98452113 9.27100235 -11.51179314 9.27335414 -13.0390625 9.27319336 C-15.38079847 9.27538577 -17.7220677 9.2935701 -20.0637207 9.3125 C-21.54744305 9.31543295 -23.03116763 9.3174184 -24.51489258 9.31835938 C-25.21699356 9.32554489 -25.91909454 9.33273041 -26.64247131 9.34013367 C-31.59465269 9.31672426 -31.59465269 9.31672426 -33.82348633 7.08789062 C-29.17892729 6.92017995 -24.53419678 6.75963069 -19.88916016 6.60571289 C-18.30901428 6.55234383 -16.72893322 6.49701847 -15.14892578 6.43969727 C-12.8778277 6.35764377 -10.60658947 6.28262874 -8.33520508 6.20898438 C-7.62885422 6.18194931 -6.92250336 6.15491425 -6.19474792 6.12705994 C-3.08480694 6.03243131 -0.80469249 6.09415524 2.17651367 7.08789062 C2.17651367 6.09789062 2.17651367 5.10789062 2.17651367 4.08789062 C-1.29865762 2.9295002 -4.49618653 2.85987845 -8.11645508 2.77148438 C-8.82248367 2.75070328 -9.52851227 2.72992218 -10.25593567 2.70851135 C-12.50752183 2.64321571 -14.75922295 2.58422416 -17.01098633 2.52539062 C-18.53899293 2.48218637 -20.06698797 2.43857147 -21.5949707 2.39453125 C-25.33769195 2.28755488 -29.08052863 2.18623141 -32.82348633 2.08789062 C-32.82348633 1.75789063 -32.82348633 1.42789063 -32.82348633 1.08789062 C-28.64261429 0.94439378 -24.46170615 0.80201286 -20.28076172 0.66064453 C-18.85985296 0.61244524 -17.43895433 0.56394647 -16.01806641 0.51513672 C-13.97015968 0.4448408 -11.92221839 0.37563873 -9.87426758 0.30664062 C-8.02828979 0.24379883 -8.02828979 0.24379883 -6.14501953 0.1796875 C-4.09658631 0.12307516 -2.04822327 0.06375792 0 0 Z " fill="#FCF4B2" transform="translate(191.823486328125,39.912109375)"/>
<path d="M0 0 C3 1 3 1 4.18676758 3.35546875 C5.31103521 8.39391585 5.15485172 13.17072507 5.01171875 18.3125 C4.98906448 19.39958252 4.96641022 20.48666504 4.94306946 21.60668945 C4.89322742 23.89969079 4.83828195 26.19258616 4.77856445 28.48535156 C4.68782473 31.987467 4.6130632 35.4896426 4.54101562 38.9921875 C4.49052155 41.22397976 4.43911968 43.4557517 4.38671875 45.6875 C4.35223885 47.25334839 4.35223885 47.25334839 4.31706238 48.85083008 C4.29066177 49.83204834 4.26426117 50.8132666 4.23706055 51.82421875 C4.20469551 53.10945435 4.20469551 53.10945435 4.17167664 54.4206543 C3.97999193 57.30061015 3.47450938 60.1529437 3 63 C8.61 63 14.22 63 20 63 C20 62.01 20 61.02 20 60 C18.68 59.67 17.36 59.34 16 59 C16.33 58.01 16.66 57.02 17 56 C17.66 56 18.32 56 19 56 C19 56.99 19 57.98 19 59 C19.66 59 20.32 59 21 59 C21.33 59.99 21.66 60.98 22 62 C21.67 62.66 21.34 63.32 21 64 C14.07 64 7.14 64 0 64 C-0.495 62.515 -0.495 62.515 -1 61 C-0.67 60.34 -0.34 59.68 0 59 C0.66 59 1.32 59 2 59 C2.07601651 51.66771072 2.12858578 44.33552293 2.16479492 37.00292969 C2.17988855 34.50809939 2.20036548 32.01329565 2.22631836 29.51855469 C2.2626754 25.93417814 2.27972078 22.35015218 2.29296875 18.765625 C2.30845261 17.64883362 2.32393646 16.53204224 2.33988953 15.38140869 C2.34011612 14.34063171 2.34034271 13.29985474 2.34057617 12.22753906 C2.34723801 11.31264709 2.35389984 10.39775513 2.36076355 9.45513916 C1.93288958 6.54328693 0.75244292 5.30255362 -1 3 C-0.67 2.01 -0.34 1.02 0 0 Z " fill="#FDF7B4" transform="translate(395,72)"/>
<path d="M0 0 C1.72974441 0.00015918 3.45949355 0.0058569 5.18920898 0.01586914 C6.09783188 0.01728409 7.00645477 0.01869904 7.94261169 0.02015686 C10.85687494 0.02577346 13.77106254 0.03832874 16.68530273 0.05102539 C18.65600475 0.05603825 20.62670797 0.06060153 22.59741211 0.06469727 C27.43923832 0.07574828 32.28100768 0.09302401 37.12280273 0.11352539 C37.78280273 1.43352539 38.44280273 2.75352539 39.12280273 4.11352539 C38.46280273 5.10352539 37.80280273 6.09352539 37.12280273 7.11352539 C34.09519791 7.39258493 31.27494622 7.48519364 28.24780273 7.44165039 C27.36753418 7.43977722 26.48726562 7.43790405 25.58032227 7.43597412 C23.71749083 7.42924567 21.85467371 7.41531549 19.99194336 7.39477539 C17.13438853 7.36365158 14.27738516 7.35380881 11.41967773 7.34790039 C9.61237932 7.33872934 7.80508653 7.32835324 5.99780273 7.31665039 C5.13944824 7.31240051 4.28109375 7.30815063 3.39672852 7.30377197 C-2.64282227 7.23071289 -2.64282227 7.23071289 -4.87719727 6.11352539 C-4.91991827 4.44740634 -4.91783559 2.77969654 -4.87719727 1.11352539 C-3.87719727 0.11352539 -3.87719727 0.11352539 0 0 Z M-2.87719727 1.11352539 C-2.87719727 2.43352539 -2.87719727 3.75352539 -2.87719727 5.11352539 C1.18259973 5.87447757 5.02166628 6.2417423 9.15014648 6.24633789 C10.83333984 6.24827148 10.83333984 6.24827148 12.55053711 6.25024414 C13.70875977 6.24637695 14.86698242 6.24250977 16.06030273 6.23852539 C17.2146582 6.24239258 18.36901367 6.24625977 19.55834961 6.25024414 C25.18317331 6.24378995 30.58508133 6.12917735 36.12280273 5.11352539 C36.12280273 3.79352539 36.12280273 2.47352539 36.12280273 1.11352539 C23.25280273 1.11352539 10.38280273 1.11352539 -2.87719727 1.11352539 Z " fill="#FDF6B6" transform="translate(154.877197265625,159.886474609375)"/>
<path d="M0 0 C1.13012512 0.00094414 1.13012512 0.00094414 2.28308105 0.00190735 C3.13736694 -0.00432144 3.99165283 -0.01055023 4.87182617 -0.01696777 C5.795802 -0.00775803 6.71977783 0.00145172 7.67175293 0.01094055 C8.61860962 0.01044205 9.56546631 0.00994354 10.54101562 0.00942993 C12.54506527 0.01177285 14.54911771 0.02151412 16.55310059 0.03804016 C19.62807408 0.06162647 22.70218079 0.05860358 25.77722168 0.05195618 C27.72123729 0.05753288 29.66524923 0.0646427 31.60925293 0.07344055 C32.99521667 0.07207344 32.99521667 0.07207344 34.40917969 0.07067871 C35.26346558 0.08021072 36.11775146 0.08974274 36.9979248 0.0995636 C38.12804993 0.10647469 38.12804993 0.10647469 39.28100586 0.11352539 C41.14050293 0.3742218 41.14050293 0.3742218 43.14050293 2.3742218 C42.81050293 4.0242218 42.48050293 5.6742218 42.14050293 7.3742218 C37.85050293 7.3742218 33.56050293 7.3742218 29.14050293 7.3742218 C29.14050293 7.0442218 29.14050293 6.7142218 29.14050293 6.3742218 C35.08050293 5.8792218 35.08050293 5.8792218 41.14050293 5.3742218 C41.14050293 4.3842218 41.14050293 3.3942218 41.14050293 2.3742218 C27.61050293 2.3742218 14.08050293 2.3742218 0.14050293 2.3742218 C-0.18949707 3.6942218 -0.51949707 5.0142218 -0.85949707 6.3742218 C0.19962891 6.35851135 0.19962891 6.35851135 1.28015137 6.34248352 C4.48356559 6.3008739 7.68692289 6.27487977 10.89050293 6.2492218 C12.0016748 6.23246399 13.11284668 6.21570618 14.25769043 6.19844055 C15.86257324 6.18877258 15.86257324 6.18877258 17.49987793 6.1789093 C18.48439941 6.16843567 19.4689209 6.15796204 20.48327637 6.14717102 C23.14050293 6.3742218 23.14050293 6.3742218 27.14050293 8.3742218 C17.57050293 8.0442218 8.00050293 7.7142218 -1.85949707 7.3742218 C-2.51949707 6.0542218 -3.17949707 4.7342218 -3.85949707 3.3742218 C-1.85949707 0.3742218 -1.85949707 0.3742218 0 0 Z " fill="#FEF6BA" transform="translate(169.8594970703125,129.6257781982422)"/>
<path d="M0 0 C1.26650391 -0.01224609 2.53300781 -0.02449219 3.83789062 -0.03710938 C5.04509766 -0.03904297 6.25230469 -0.04097656 7.49609375 -0.04296875 C9.1675647 -0.04913208 9.1675647 -0.04913208 10.87280273 -0.05541992 C13.5625 0.1875 13.5625 0.1875 15.5625 2.1875 C15.02678571 5.72321429 15.02678571 5.72321429 13.5625 7.1875 C9.08918042 7.44130234 4.6046654 7.37272721 0.125 7.375 C-1.14150391 7.38724609 -2.40800781 7.39949219 -3.71289062 7.41210938 C-4.92009766 7.41404297 -6.12730469 7.41597656 -7.37109375 7.41796875 C-9.0425647 7.42413208 -9.0425647 7.42413208 -10.74780273 7.43041992 C-13.4375 7.1875 -13.4375 7.1875 -15.4375 5.1875 C-14.25681537 -2.60501855 -6.40295156 0.00324858 0 0 Z M-12.4375 1.1875 C-12.4375 2.5075 -12.4375 3.8275 -12.4375 5.1875 C-3.8575 5.1875 4.7225 5.1875 13.5625 5.1875 C13.5625 3.8675 13.5625 2.5475 13.5625 1.1875 C4.9825 1.1875 -3.5975 1.1875 -12.4375 1.1875 Z " fill="#FDF7B7" transform="translate(75.4375,159.8125)"/>
<path d="M0 0 C0.66 0 1.32 0 2 0 C2.07416805 6.0505912 2.12861087 12.10091765 2.16479492 18.15185547 C2.1798795 20.21017059 2.20034987 22.26845358 2.22631836 24.32666016 C2.26271585 27.28556244 2.27972966 30.24403967 2.29296875 33.203125 C2.30845261 34.12305237 2.32393646 35.04297974 2.33988953 35.99078369 C2.34011612 36.8513739 2.34034271 37.71196411 2.34057617 38.59863281 C2.34723801 39.35364075 2.35389984 40.10864868 2.36076355 40.88653564 C2 43 2 43 -1 47 C5.27 47 11.54 47 18 47 C17.505 44.525 17.505 44.525 17 42 C17.99 42.66 18.98 43.32 20 44 C19.67 45.32 19.34 46.64 19 48 C12.07 48 5.14 48 -2 48 C-2.33 46.68 -2.66 45.36 -3 44 C-1.515 43.505 -1.515 43.505 0 43 C0 28.81 0 14.62 0 0 Z " fill="#FCF6B3" transform="translate(591,88)"/>
<path d="M0 0 C2.57955824 3.86933736 2.19973806 6.9920975 2.08984375 11.46484375 C2.0694225 13.16861694 2.04924782 14.87239311 2.02929688 16.57617188 C1.98578904 19.26013843 1.93737152 21.94390589 1.88354492 24.62768555 C1.83524933 27.21923159 1.80538828 29.81051107 1.77734375 32.40234375 C1.75558578 33.20349106 1.73382782 34.00463837 1.71141052 34.83006287 C1.68088977 38.25944968 1.73350049 40.55334148 3.51391602 43.53735352 C4.00432373 44.02002686 4.49473145 44.5027002 5 45 C2.12063116 47.87936884 -0.94265108 47.49797044 -4.8125 47.6875 C-5.52470703 47.73455078 -6.23691406 47.78160156 -6.97070312 47.83007812 C-10.82151026 48.04737622 -14.26121217 47.97693277 -18 47 C-18 45.35 -18 43.7 -18 42 C-17.34 42 -16.68 42 -16 42 C-15.67 42.99 -15.34 43.98 -15 45 C-9.39 45.33 -3.78 45.66 2 46 C1.34 44.68 0.68 43.36 0 42 C-0.24050903 39.92449951 -0.24050903 39.92449951 -0.22705078 37.69042969 C-0.22689972 36.84986023 -0.22674866 36.00929077 -0.22659302 35.14324951 C-0.21627045 34.24519592 -0.20594788 33.34714233 -0.1953125 32.421875 C-0.1924826 31.4953009 -0.18965271 30.56872681 -0.18673706 29.61407471 C-0.17555611 26.65925091 -0.15045527 23.70473195 -0.125 20.75 C-0.11496751 18.74479605 -0.10584213 16.73958734 -0.09765625 14.734375 C-0.07562358 9.82279949 -0.04110795 4.91145141 0 0 Z " fill="#F6F0AD" transform="translate(567,89)"/>
<path d="M0 0 C0.66 1.32 1.32 2.64 2 4 C1.31292969 4.26554687 0.62585938 4.53109375 -0.08203125 4.8046875 C-0.98308594 5.15789062 -1.88414062 5.51109375 -2.8125 5.875 C-3.70582031 6.22304687 -4.59914063 6.57109375 -5.51953125 6.9296875 C-8.17711591 7.98832155 -8.17711591 7.98832155 -11 10 C-11.33 10.99 -11.66 11.98 -12 13 C-13.32 12.34 -14.64 11.68 -16 11 C-15.67 10.01 -15.34 9.02 -15 8 C-16.32 7.67 -17.64 7.34 -19 7 C-16.39608461 6.02016072 -13.79188032 5.04110206 -11.1875 4.0625 C-10.44951172 3.78470703 -9.71152344 3.50691406 -8.95117188 3.22070312 C-8.23896484 2.95322266 -7.52675781 2.68574219 -6.79296875 2.41015625 C-6.1383667 2.16402588 -5.48376465 1.91789551 -4.80932617 1.66430664 C-3.21688185 1.07962967 -1.60933324 0.53644441 0 0 Z " fill="#FDF9B1" transform="translate(478,100)"/>
<path d="M0 0 C0.66 0.33 1.32 0.66 2 1 C1.01 2.485 1.01 2.485 0 4 C-0.36645955 6.23474603 -0.36645955 6.23474603 -0.4140625 8.7265625 C-0.45281494 9.66878662 -0.49156738 10.61101074 -0.53149414 11.58178711 C-0.56235107 12.58604736 -0.59320801 13.59030762 -0.625 14.625 C-0.66294678 15.64795166 -0.70089355 16.67090332 -0.73999023 17.72485352 C-1.04124951 26.48459899 -1.10586853 35.23643818 -1 44 C-1.66 44 -2.32 44 -3 44 C-2.98428955 42.96593018 -2.9685791 41.93186035 -2.95239258 40.86645508 C-2.89795946 37.01806473 -2.86360151 33.16970821 -2.83520508 29.32104492 C-2.82014886 27.65757519 -2.79969937 25.99414495 -2.77368164 24.33081055 C-2.73715793 21.93528478 -2.72024218 19.54028533 -2.70703125 17.14453125 C-2.69154739 16.4047554 -2.67606354 15.66497955 -2.66011047 14.90278625 C-2.65865504 10.40435377 -3.30369368 7.62306443 -6 4 C-4.7934375 3.566875 -4.7934375 3.566875 -3.5625 3.125 C-0.8673532 2.26737432 -0.8673532 2.26737432 0 0 Z " fill="#FEFBB1" transform="translate(415,80)"/>
<path d="M0 0 C1.37562854 1.28965176 2.70766393 2.62689293 4 4 C4 4.66 4 5.32 4 6 C4.94875 5.175 5.8975 4.35 6.875 3.5 C9.75 1 9.75 1 12 1 C12.22429688 1.64453125 12.44859375 2.2890625 12.6796875 2.953125 C13.82889456 5.24388852 13.82889456 5.24388852 16.3828125 5.609375 C17.28773438 5.65578125 18.19265625 5.7021875 19.125 5.75 C20.03507813 5.80671875 20.94515625 5.8634375 21.8828125 5.921875 C22.58148437 5.94765625 23.28015625 5.9734375 24 6 C23.67 6.66 23.34 7.32 23 8 C22.43152344 7.97679688 21.86304688 7.95359375 21.27734375 7.9296875 C16.07441352 7.80808312 11.92687757 8.32276508 7 10 C7 9.01 7 8.02 7 7 C5.35 6.67 3.7 6.34 2 6 C1.34 4.02 0.68 2.04 0 0 Z " fill="#FCF9AE" transform="translate(561,74)"/>
<path d="M0 0 C0.88602402 0.00222061 1.77204803 0.00444122 2.68492126 0.00672913 C3.68588333 0.00680466 4.6868454 0.00688019 5.71813965 0.00695801 C6.80666733 0.01211929 7.89519501 0.01728058 9.01670837 0.02259827 C10.67928932 0.02472069 10.67928932 0.02472069 12.37545776 0.02688599 C15.93168281 0.03250418 19.48784596 0.04505977 23.04405212 0.05775452 C25.44834809 0.06276717 27.85264504 0.06733048 30.25694275 0.07142639 C36.16516716 0.08247952 42.07335522 0.09923535 47.98155212 0.12025452 C47.98155212 0.45025452 47.98155212 0.78025452 47.98155212 1.12025452 C32.14155212 1.12025452 16.30155212 1.12025452 -0.01844788 1.12025452 C-0.01844788 2.11025452 -0.01844788 3.10025452 -0.01844788 4.12025452 C0.64155212 4.78025452 1.30155212 5.44025452 1.98155212 6.12025452 C0.33155212 6.45025452 -1.31844788 6.78025452 -3.01844788 7.12025452 C-3.06099144 5.12070706 -3.05925571 3.11983815 -3.01844788 1.12025452 C-2.01844788 0.12025452 -2.01844788 0.12025452 0 0 Z " fill="#FEF5B8" transform="translate(44.01844787597656,70.87974548339844)"/>
<path d="M0 0 C1.31538327 4.15771494 0.34433068 6.8879297 -1 11 C-0.34 11.33 0.32 11.66 1 12 C1 13.65 1 15.3 1 17 C-3.455 19.475 -3.455 19.475 -8 22 C-8 21.01 -8 20.02 -8 19 C-7.38125 18.7525 -6.7625 18.505 -6.125 18.25 C-3.64931313 16.79371361 -3.04874998 15.62187494 -2 13 C-3.65 13.66 -5.3 14.32 -7 15 C-6.401875 14.195625 -5.80375 13.39125 -5.1875 12.5625 C-2.57258769 8.68200735 -1.30777251 4.45831538 0 0 Z " fill="#FDF9B2" transform="translate(693,80)"/>
<path d="M0 0 C0.66 0 1.32 0 2 0 C1.67515625 1.04800781 1.67515625 1.04800781 1.34375 2.1171875 C1.0653125 3.02726562 0.786875 3.93734375 0.5 4.875 C0.2215625 5.77992187 -0.056875 6.68484375 -0.34375 7.6171875 C-1.08850794 9.90944647 -1.08850794 9.90944647 -1 12 C-1.66 12 -2.32 12 -3 12 C-2.938125 12.763125 -2.87625 13.52625 -2.8125 14.3125 C-3.03403312 17.48780806 -3.71775032 17.95735659 -6 20 C-5.9278125 19.30132812 -5.855625 18.60265625 -5.78125 17.8828125 C-5.64203125 16.51769531 -5.64203125 16.51769531 -5.5 15.125 C-5.4071875 14.22007813 -5.314375 13.31515625 -5.21875 12.3828125 C-4.96952705 10.06686789 -4.96952705 10.06686789 -5 8 C-5.99 8 -6.98 8 -8 8 C-8 6.02 -8 4.04 -8 2 C-7.34 1.67 -6.68 1.34 -6 1 C-6 2.32 -6 3.64 -6 5 C-4.68 5 -3.36 5 -2 5 C-1.34 3.35 -0.68 1.7 0 0 Z " fill="#FDFAB4" transform="translate(381,89)"/>
<path d="M0 0 C0.66 0.33 1.32 0.66 2 1 C1.67 2.65 1.34 4.3 1 6 C-17.81 6.495 -17.81 6.495 -37 7 C-37.33 6.34 -37.66 5.68 -38 5 C-25.46 4.67 -12.92 4.34 0 4 C0 2.68 0 1.36 0 0 Z " fill="#FEF8BD" transform="translate(82,131)"/>
<path d="M0 0 C0.33 0.66 0.66 1.32 1 2 C1.66 2 2.32 2 3 2 C4.17664871 5.52994613 4.19850603 8.29455413 4 12 C3.01 13.485 3.01 13.485 2 15 C0 14 0 14 -0.625 12.4375 C-1.24770823 8.38989652 -1.86143476 3.72286952 0 0 Z " fill="#FEFDA1" transform="translate(118,46)"/>
<path d="M0 0 C5.3909521 2.50610778 8.99806671 5.13577194 12.30078125 10.08984375 C12.30078125 10.74984375 12.30078125 11.40984375 12.30078125 12.08984375 C11.31078125 11.75984375 10.32078125 11.42984375 9.30078125 11.08984375 C8.97078125 10.09984375 8.64078125 9.10984375 8.30078125 8.08984375 C6.64129977 7.0779648 4.97497563 6.07718915 3.30078125 5.08984375 C3.30078125 4.42984375 3.30078125 3.76984375 3.30078125 3.08984375 C-3.458093 1.01019013 -9.65481796 0.87851173 -16.69921875 1.08984375 C-11.33800611 -1.95796892 -5.80453938 -1.957247 0 0 Z " fill="#FDF7B5" transform="translate(144.69921875,100.91015625)"/>
<path d="M0 0 C3 1 3 1 3.9140625 2.8203125 C5.55845182 8.15102513 7 13.36748525 7 19 C6.01 19 5.02 19 4 19 C4 21.97 4 24.94 4 28 C3.34 27.67 2.68 27.34 2 27 C2.10699219 25.88882813 2.21398437 24.77765625 2.32421875 23.6328125 C3.03945444 15.18201307 3.46852237 7.97564183 0 0 Z " fill="#FEFBB5" transform="translate(477,72)"/>
<path d="M0 0 C1.125 4.75 1.125 4.75 0 7 C-1 6 -1 6 -1.0625 3.4375 C-1.041875 2.633125 -1.02125 1.82875 -1 1 C-2.41750563 1.11509661 -3.83401169 1.24253658 -5.25 1.375 C-6.43335938 1.47941406 -6.43335938 1.47941406 -7.640625 1.5859375 C-10.09537697 2.01673834 -11.79465101 2.87909948 -14 4 C-14.99 4 -15.98 4 -17 4 C-17.33 4.99 -17.66 5.98 -18 7 C-18.66 6.01 -19.32 5.02 -20 4 C-14.52951893 -1.23263407 -7.01724192 -1.4930302 0 0 Z " fill="#FDF7B9" transform="translate(528,70)"/>
<path d="M0 0 C0.27328125 0.55816406 0.5465625 1.11632812 0.828125 1.69140625 C5.11996982 10.14634055 9.08235464 15.72156976 17 21 C15.35 21 13.7 21 12 21 C12 20.34 12 19.68 12 19 C9.69 18.34 7.38 17.68 5 17 C5 15.35 5 13.7 5 12 C4.34 12 3.68 12 3 12 C2.67 10.35 2.34 8.7 2 7 C1.34 7 0.68 7 0 7 C0 4.69 0 2.38 0 0 Z " fill="#FEF8B3" transform="translate(103,123)"/>
<path d="M0 0 C0.66 0.33 1.32 0.66 2 1 C1.90460938 1.62648438 1.80921875 2.25296875 1.7109375 2.8984375 C1.60007812 3.71570313 1.48921875 4.53296875 1.375 5.375 C1.25898438 6.18710938 1.14296875 6.99921875 1.0234375 7.8359375 C1.01570313 8.55007812 1.00796875 9.26421875 1 10 C1.66 10.66 2.32 11.32 3 12 C3.125 15.625 3.125 15.625 3 19 C2.34 19 1.68 19 1 19 C0.67 20.32 0.34 21.64 0 23 C0.020625 21.9275 0.04125 20.855 0.0625 19.75 C0.0142016 16.85209576 -0.13155885 14.71387859 -1 12 C-1.99 12.495 -1.99 12.495 -3 13 C-2.68817931 11.58318366 -2.37551263 10.16655349 -2.0625 8.75 C-1.88847656 7.96109375 -1.71445312 7.1721875 -1.53515625 6.359375 C-1.052444 4.23121297 -0.53836822 2.11467158 0 0 Z " fill="#FEFAB3" transform="translate(371,99)"/>
<path d="M0 0 C1.51815699 0.00015911 3.0363194 0.00585313 4.55444336 0.01586914 C5.35208603 0.01728409 6.1497287 0.01869904 6.97154236 0.02015686 C9.52916146 0.02577223 12.08669429 0.03832727 14.64428711 0.05102539 C16.37410356 0.05603841 18.10392137 0.06060166 19.83374023 0.06469727 C24.08312264 0.07574664 28.33244023 0.09302153 32.58178711 0.11352539 C32.58178711 0.44352539 32.58178711 0.77352539 32.58178711 1.11352539 C21.03178711 1.11352539 9.48178711 1.11352539 -2.41821289 1.11352539 C-2.41821289 2.76352539 -2.41821289 4.41352539 -2.41821289 6.11352539 C-3.40821289 6.11352539 -4.39821289 6.11352539 -5.41821289 6.11352539 C-4.34682538 0.14436639 -4.34682538 0.14436639 0 0 Z " fill="#FBF2AB" transform="translate(49.418212890625,129.886474609375)"/>
<path d="M0 0 C9.24 0 18.48 0 28 0 C28 0.33 28 0.66 28 1 C19.09 1 10.18 1 1 1 C2.65 2.98 4.3 4.96 6 7 C5.67 7.99 5.34 8.98 5 10 C4.67 8.68 4.34 7.36 4 6 C2.35 5.67 0.7 5.34 -1 5 C-0.67 3.35 -0.34 1.7 0 0 Z " fill="#FDF6B6" transform="translate(262,38)"/>
<path d="M0 0 C2.17840269 2.17840269 2.64457864 3.00352457 3 6 C2.22265625 8.140625 2.22265625 8.140625 1.0625 10.25 C0.68222656 10.95640625 0.30195313 11.6628125 -0.08984375 12.390625 C-0.39019531 12.92171875 -0.69054687 13.4528125 -1 14 C-1.99 14 -2.98 14 -4 14 C-4.33 14.66 -4.66 15.32 -5 16 C-7.31 16 -9.62 16 -12 16 C-12.33 15.34 -12.66 14.68 -13 14 C-11.9275 13.855625 -10.855 13.71125 -9.75 13.5625 C-7.07400181 13.16110027 -4.60118809 12.68482607 -2 12 C-1.66269158 10.56342755 -1.33030409 9.12569907 -1 7.6875 C-0.814375 6.88699219 -0.62875 6.08648437 -0.4375 5.26171875 C0.09495823 2.89304062 0.09495823 2.89304062 0 0 Z " fill="#FDF8BA" transform="translate(444,75)"/>
<path d="M0 0 C0.66 0 1.32 0 2 0 C2 0.66 2 1.32 2 2 C2.66 2 3.32 2 4 2 C5.78180829 5.26664854 6.02728023 6.82722524 5.4375 10.5625 C3.82738123 14.41278402 2.51565665 15.82364112 -1 18 C-3.3125 18.75 -3.3125 18.75 -5 19 C-4.505 17.515 -4.505 17.515 -4 16 C-2.68 16 -1.36 16 0 16 C0.66 14.35 1.32 12.7 2 11 C2.66 11 3.32 11 4 11 C3.79503906 10.45730469 3.59007812 9.91460937 3.37890625 9.35546875 C3.10949219 8.64003906 2.84007812 7.92460938 2.5625 7.1875 C2.16224609 6.12595703 2.16224609 6.12595703 1.75390625 5.04296875 C1.13774814 3.37327604 0.56280765 1.68842296 0 0 Z " fill="#FCF8B4" transform="translate(736,71)"/>
<path d="M0 0 C0.99 0.33 1.98 0.66 3 1 C3 1.66 3 2.32 3 3 C4.98 2.67 6.96 2.34 9 2 C11.8990762 6.21683811 12.91343356 10.06866002 14 15 C13.34 15 12.68 15 12 15 C12 14.34 12 13.68 12 13 C11.34 13 10.68 13 10 13 C9.67 10.36 9.34 7.72 9 5 C5.37673261 3.7922442 4.35853631 4.45688872 1 6 C0.34 4.35 -0.32 2.7 -1 1 C-0.67 0.67 -0.34 0.34 0 0 Z " fill="#FCF7B5" transform="translate(417,74)"/>
<path d="M0 0 C1.32 1.32 2.64 2.64 4 4 C1.12063116 6.87936884 -1.94265108 6.49797044 -5.8125 6.6875 C-6.52470703 6.73455078 -7.23691406 6.78160156 -7.97070312 6.83007812 C-11.82151026 7.04737622 -15.26121217 6.97693277 -19 6 C-19 4.35 -19 2.7 -19 1 C-18.34 1 -17.68 1 -17 1 C-16.67 1.99 -16.34 2.98 -16 4 C-10.39 4.33 -4.78 4.66 1 5 C0.67 3.35 0.34 1.7 0 0 Z " fill="#FAF3B7" transform="translate(568,130)"/>
<path d="M0 0 C1.32 0.66 2.64 1.32 4 2 C4 2.99 4 3.98 4 5 C1.54724859 6.2263757 -0.0505781 6.11415314 -2.7890625 6.09765625 C-3.73007812 6.09443359 -4.67109375 6.09121094 -5.640625 6.08789062 C-6.62546875 6.07951172 -7.6103125 6.07113281 -8.625 6.0625 C-9.61757813 6.05798828 -10.61015625 6.05347656 -11.6328125 6.04882812 C-14.0886016 6.03702145 -16.54427104 6.020554 -19 6 C-19 4.35 -19 2.7 -19 1 C-18.67 2.32 -18.34 3.64 -18 5 C-12.06 4.67 -6.12 4.34 0 4 C0 2.68 0 1.36 0 0 Z " fill="#FBF1B3" transform="translate(528,130)"/>
<path d="M0 0 C0.99 0 1.98 0 3 0 C3 0.99 3 1.98 3 3 C-2.23420787 6.27137992 -5.16605611 6.10643764 -11 5 C-11 4.01 -11 3.02 -11 2 C-10.01 1.67 -9.02 1.34 -8 1 C-8 1.99 -8 2.98 -8 4 C-3.58477891 2.73025028 -3.58477891 2.73025028 0 0 Z " fill="#FAF797" transform="translate(678,104)"/>
<path d="M0 0 C-0.33 0.66 -0.66 1.32 -1 2 C-1.70125 1.79375 -2.4025 1.5875 -3.125 1.375 C-6.62862769 0.91800508 -8.69802365 1.83055004 -12 3 C-14.875 3.125 -14.875 3.125 -17 3 C-16.67 4.98 -16.34 6.96 -16 9 C-17.32 7.35 -18.64 5.7 -20 4 C-13.53383602 -0.44548774 -7.58877241 -1.58099425 0 0 Z " fill="#FEF8B7" transform="translate(709,70)"/>
<path d="M0 0 C9.24 0 18.48 0 28 0 C28 0.33 28 0.66 28 1 C15.625 1.495 15.625 1.495 3 2 C2.67 2.66 2.34 3.32 2 4 C1.01 4 0.02 4 -1 4 C-0.67 2.68 -0.34 1.36 0 0 Z " fill="#FFFBAD" transform="translate(157,42)"/>
<path d="M0 0 C0.66 0 1.32 0 2 0 C2 0.66 2 1.32 2 2 C2.928125 2.1546875 2.928125 2.1546875 3.875 2.3125 C6 3 6 3 8 6 C9.32 6 10.64 6 12 6 C12 6.66 12 7.32 12 8 C14.46326712 9.6446674 14.46326712 9.6446674 17 11 C14 12 14 12 11.9140625 10.9609375 C7.54019688 7.93058009 3.53635345 4.99265712 0 1 C0 0.67 0 0.34 0 0 Z " fill="#FEFAB5" transform="translate(96,134)"/>
<path d="M0 0 C1.76923828 0.01353516 1.76923828 0.01353516 3.57421875 0.02734375 C4.47785156 0.03894531 5.38148438 0.05054687 6.3125 0.0625 C6.3125 0.3925 6.3125 0.7225 6.3125 1.0625 C5.45785156 1.11148438 4.60320312 1.16046875 3.72265625 1.2109375 C2.61792969 1.28570312 1.51320312 1.36046875 0.375 1.4375 C-0.72714844 1.50710937 -1.82929688 1.57671875 -2.96484375 1.6484375 C-4.31255859 1.85339844 -4.31255859 1.85339844 -5.6875 2.0625 C-6.0175 2.7225 -6.3475 3.3825 -6.6875 4.0625 C-6.3575 5.0525 -6.0275 6.0425 -5.6875 7.0625 C-7.3375 6.7325 -8.9875 6.4025 -10.6875 6.0625 C-10.3575 4.4125 -10.0275 2.7625 -9.6875 1.0625 C-6.26517028 -0.07827657 -3.60076783 -0.03565117 0 0 Z " fill="#FCF5B3" transform="translate(176.6875,99.9375)"/>
<path d="M0 0 C3.1875 0.3125 3.1875 0.3125 5.5625 2.3125 C6.09875 2.9725 6.635 3.6325 7.1875 4.3125 C6.424375 3.9825 5.66125 3.6525 4.875 3.3125 C2.19680865 2.13813314 2.19680865 2.13813314 -0.8125 2.3125 C-1.1425 2.9725 -1.4725 3.6325 -1.8125 4.3125 C-1.1525 4.6425 -0.4925 4.9725 0.1875 5.3125 C-0.8025 5.6425 -1.7925 5.9725 -2.8125 6.3125 C-3.54573796 8.32758358 -3.54573796 8.32758358 -3.8125 10.3125 C-4.4725 9.9825 -5.1325 9.6525 -5.8125 9.3125 C-5.50431644 7.99897977 -5.19082335 6.68670428 -4.875 5.375 C-4.70097656 4.64410156 -4.52695312 3.91320312 -4.34765625 3.16015625 C-3.49293027 0.209168 -3.18978708 0.35442079 0 0 Z " fill="#FEF8B7" transform="translate(340.8125,153.6875)"/>
<path d="M0 0 C0 0.99 0 1.98 0 3 C-0.33 2.67 -0.66 2.34 -1 2 C-6.13453235 1.67671463 -10.9719059 1.93343458 -16 3 C-16.99 2.67 -17.98 2.34 -19 2 C-12.31311081 -0.85888741 -7.14765932 -1.23852969 0 0 Z " fill="#FDF9B5" transform="translate(556,69)"/>
<path d="M0 0 C0.99 0.33 1.98 0.66 3 1 C-0.63 4.63 -4.26 8.26 -8 12 C-8 8.82629722 -7.69066658 7.6205332 -6 5 C-3.875 3.75 -3.875 3.75 -2 3 C-2 2.34 -2 1.68 -2 1 C-1.34 0.67 -0.68 0.34 0 0 Z " fill="#FBF8AC" transform="translate(494,111)"/>
<path d="M0 0 C0.86625 -0.00773437 1.7325 -0.01546875 2.625 -0.0234375 C5.43606469 0.44815559 6.35668861 1.0722018 8 3.375 C8 4.365 8 5.355 8 6.375 C7.01 6.375 6.02 6.375 5 6.375 C4.67 5.055 4.34 3.735 4 2.375 C0.7 2.375 -2.6 2.375 -6 2.375 C-6.33 3.365 -6.66 4.355 -7 5.375 C-7.33 4.715 -7.66 4.055 -8 3.375 C-5.53942518 0.31546946 -3.87051927 -0.03455821 0 0 Z " fill="#FEF7BA" transform="translate(385,68.625)"/>
<path d="M0 0 C0.66 0 1.32 0 2 0 C3.375 3.0625 3.375 3.0625 4 7 C2.43801398 9.7900302 0.47732526 11.98257423 -2 14 C-2.66 14 -3.32 14 -4 14 C-3.1875 12.0625 -3.1875 12.0625 -2 10 C-1.01 9.67 -0.02 9.34 1 9 C0.67 6.03 0.34 3.06 0 0 Z " fill="#FDF8B5" transform="translate(122,96)"/>
<path d="M0 0 C0.98120464 3.05263664 0.98120464 4.94736336 0 8 C0.66 8.33 1.32 8.66 2 9 C2.625 11.5625 2.625 11.5625 3 14 C0 13 0 13 -2 10 C-2.4516129 3.67741935 -2.4516129 3.67741935 0 0 Z " fill="#FDF4B5" transform="translate(103,168)"/>
<path d="M0 0 C1.4375 2.125 1.4375 2.125 2 4 C0.68 4 -0.64 4 -2 4 C-2.66 3.01 -3.32 2.02 -4 1 C-6.95817107 0.74994614 -6.95817107 0.74994614 -10 1 C-10.99 1 -11.98 1 -13 1 C-8.85854214 -3.14145786 -5.22854206 -2.03332191 0 0 Z " fill="#FEF8B8" transform="translate(117,166)"/>
<path d="M0 0 C1.32 0.33 2.64 0.66 4 1 C4.66 4.3 5.32 7.6 6 11 C5.01 11 4.02 11 3 11 C2.49632243 9.54293274 1.99717444 8.08429904 1.5 6.625 C1.2215625 5.81289062 0.943125 5.00078125 0.65625 4.1640625 C0 2 0 2 0 0 Z " fill="#FDF6BB" transform="translate(113,119)"/>
<path d="M0 0 C2.61593153 1.83115207 2.96989455 2.90968366 4 6 C3.67 6.66 3.34 7.32 3 8 C2.34 8 1.68 8 1 8 C0.34 6.02 -0.32 4.04 -1 2 C-3.31 2.33 -5.62 2.66 -8 3 C-8.33 2.34 -8.66 1.68 -9 1 C-5.95016004 -0.52491998 -3.3576631 -0.23562548 0 0 Z " fill="#FDF8B3" transform="translate(722,76)"/>
<path d="M0 0 C0.185625 0.598125 0.37125 1.19625 0.5625 1.8125 C2.72273753 5.09981799 5.35107655 5.64854687 9 7 C6.60042386 7.84119973 5.35077442 8.11193544 2.89453125 7.328125 C2.20746094 6.97234375 1.52039063 6.6165625 0.8125 6.25 C0.11769531 5.90453125 -0.57710937 5.5590625 -1.29296875 5.203125 C-3 4 -3 4 -4 1 C-2 0 -2 0 0 0 Z " fill="#FEF9B5" transform="translate(630,127)"/>
<path d="M0 0 C0 1.32 0 2.64 0 4 C0.66 4 1.32 4 2 4 C1.67 4.99 1.34 5.98 1 7 C0.2575 6.401875 -0.485 5.80375 -1.25 5.1875 C-3.47417764 3.41826778 -5.71662235 1.69139085 -8 0 C-4.94736336 -0.98120464 -3.05263664 -0.98120464 0 0 Z " fill="#FEFAAE" transform="translate(140,107)"/>
<path d="M0 0 C0.73605469 0.0721875 1.47210938 0.144375 2.23046875 0.21875 C3.69419922 0.35796875 3.69419922 0.35796875 5.1875 0.5 C6.15042969 0.5928125 7.11335938 0.685625 8.10546875 0.78125 C10.75187667 0.98124844 13.34760865 1.03879183 16 1 C13.35955695 3.64044305 11.68770435 4.31709179 8 5 C5.13058702 3.98848032 2.58790305 2.58952421 0 1 C0 0.67 0 0.34 0 0 Z " fill="#FCF7B7" transform="translate(487,133)"/>
<path d="M0 0 C4.95 1.98 4.95 1.98 10 4 C9.67 4.66 9.34 5.32 9 6 C4.545 5.01 4.545 5.01 0 4 C0 2.68 0 1.36 0 0 Z " fill="#FCFC9E" transform="translate(640,102)"/>
<path d="M0 0 C1.71017726 2.5652659 2.90417811 4.87960965 4.125 7.6875 C4.47820312 8.49574219 4.83140625 9.30398437 5.1953125 10.13671875 C5.46085937 10.75160156 5.72640625 11.36648437 6 12 C4.02 11.34 2.04 10.68 0 10 C0 6.7 0 3.4 0 0 Z " fill="#FEFBB4" transform="translate(352,81)"/>
<path d="M0 0 C4.83256305 0.41421969 6.82679218 2.46413986 10 6 C9.67 6.99 9.34 7.98 9 9 C8.814375 8.21625 8.62875 7.4325 8.4375 6.625 C7.16038373 3.60623658 7.16038373 3.60623658 3.375 2.6875 C2.26125 2.460625 1.1475 2.23375 0 2 C0 1.34 0 0.68 0 0 Z " fill="#FEFAB9" transform="translate(484,70)"/>
<path d="M0 0 C0.99 0 1.98 0 3 0 C3.93065133 2.60582371 4.14917407 3.64198224 3.0625 6.25 C2.5365625 7.11625 2.5365625 7.11625 2 8 C2.66 8.33 3.32 8.66 4 9 C3.01 9 2.02 9 1 9 C0.67 6.03 0.34 3.06 0 0 Z " fill="#FEFD9D" transform="translate(357,141)"/>
<path d="M0 0 C0.66 0 1.32 0 2 0 C2 1.98 2 3.96 2 6 C0.68 6.33 -0.64 6.66 -2 7 C-1.125 2.25 -1.125 2.25 0 0 Z " fill="#FCFC9C" transform="translate(355,150)"/>
<path d="M0 0 C0.99 0.33 1.98 0.66 3 1 C2.8125 3.375 2.8125 3.375 2 6 C-0.5625 7.3125 -0.5625 7.3125 -3 8 C-2.67 7.34 -2.34 6.68 -2 6 C-1.34 6 -0.68 6 0 6 C0 4.02 0 2.04 0 0 Z " fill="#FCF7BB" transform="translate(220,101)"/>
<path d="M0 0 C2 1 2 1 2.8515625 3.06640625 C3.10679687 3.89011719 3.36203125 4.71382813 3.625 5.5625 C3.88539063 6.38878906 4.14578125 7.21507813 4.4140625 8.06640625 C4.60742188 8.70449219 4.80078125 9.34257813 5 10 C4.34 10 3.68 10 3 10 C2.67 8.35 2.34 6.7 2 5 C1.01 5 0.02 5 -1 5 C-0.67 3.35 -0.34 1.7 0 0 Z " fill="#FEF9B2" transform="translate(358,96)"/>
<path d="M0 0 C-0.33 0.66 -0.66 1.32 -1 2 C-5.026591 2.77434442 -8.90386029 3.12412545 -13 3 C-8.72352613 0.14901742 -5.0682068 -0.14480591 0 0 Z " fill="#FDF9B5" transform="translate(591,68)"/>
<path d="M0 0 C0.66 0 1.32 0 2 0 C3.2890625 1.53125 3.2890625 1.53125 4.625 3.5 C5.07101562 4.1496875 5.51703125 4.799375 5.9765625 5.46875 C6.31429687 5.9740625 6.65203125 6.479375 7 7 C6.01 7.495 6.01 7.495 5 8 C2.5 5.6875 2.5 5.6875 0 3 C0 2.01 0 1.02 0 0 Z " fill="#FDF8AE" transform="translate(636,125)"/>
<path d="M0 0 C0.66 0.33 1.32 0.66 2 1 C1.67 1.99 1.34 2.98 1 4 C1 4.99 1 5.98 1 7 C-0.32 6.67 -1.64 6.34 -3 6 C-1.125 1.125 -1.125 1.125 0 0 Z " fill="#FEFAB2" transform="translate(631,73)"/>
<path d="M0 0 C0.66 0 1.32 0 2 0 C2 2.31 2 4.62 2 7 C1.01 6.67 0.02 6.34 -1 6 C-0.67 4.02 -0.34 2.04 0 0 Z " fill="#FDFC9E" transform="translate(127,117)"/>
<path d="M0 0 C1.98 0.99 1.98 0.99 4 2 C3.6875 3.9375 3.6875 3.9375 3 6 C2.01 6.33 1.02 6.66 0 7 C0 4.69 0 2.38 0 0 Z " fill="#FEF8B8" transform="translate(74,101)"/>
<path d="M0 0 C0.33 0.99 0.66 1.98 1 3 C-0.65 4.65 -2.3 6.3 -4 8 C-4.33 7.34 -4.66 6.68 -5 6 C-3.35 4.02 -1.7 2.04 0 0 Z " fill="#FEF8B0" transform="translate(625,77)"/>
<path d="M0 0 C0.66 0.99 1.32 1.98 2 3 C1.34 3 0.68 3 0 3 C0 4.65 0 6.3 0 8 C-0.66 8 -1.32 8 -2 8 C-2.6875 6.25 -2.6875 6.25 -3 4 C-1.5625 1.75 -1.5625 1.75 0 0 Z " fill="#FDF9BA" transform="translate(366,131)"/>
<path d="M0 0 C0.33 0.99 0.66 1.98 1 3 C1.66 3.33 2.32 3.66 3 4 C2.34 4.66 1.68 5.32 1 6 C-1 6 -1 6 -4 5 C-3.34 5 -2.68 5 -2 5 C-1.34 3.35 -0.68 1.7 0 0 Z " fill="#FEF8B7" transform="translate(117,110)"/>
<path d="M0 0 C-0.99 1.485 -0.99 1.485 -2 3 C-3.32 2.67 -4.64 2.34 -6 2 C-6 1.34 -6 0.68 -6 0 C-3.50907189 -1.24546405 -2.58919267 -0.7767578 0 0 Z " fill="#FDFD98" transform="translate(386,72)"/>
<path d="M0 0 C0 0.33 0 0.66 0 1 C-1.62171239 1.38897161 -3.24754925 1.76078298 -4.875 2.125 C-5.77992188 2.33382812 -6.68484375 2.54265625 -7.6171875 2.7578125 C-8.40351563 2.83773437 -9.18984375 2.91765625 -10 3 C-10.66 2.34 -11.32 1.68 -12 1 C-8.0186217 -0.3271261 -4.14954773 -0.06915913 0 0 Z " fill="#FEF8B5" transform="translate(410,70)"/>
<path d="M0 0 C3.875 4.75 3.875 4.75 5 7 C3.02 6.34 1.04 5.68 -1 5 C-0.67 3.35 -0.34 1.7 0 0 Z " fill="#FEFCBF" transform="translate(143,20)"/>
<path d="M0 0 C1.65 0.33 3.3 0.66 5 1 C5.33 1.99 5.66 2.98 6 4 C3.03 3.505 3.03 3.505 0 3 C0 2.01 0 1.02 0 0 Z " fill="#FDFAB6" transform="translate(136,17)"/>
</svg>
